<?xml version="1.0" encoding="utf-8" standalone="yes"?>
<!DOCTYPE svg PUBLIC "-//W3C//DTD SVG 1.1//EN" "http://www.w3.org/Graphics/SVG/1.1/DTD/svg11.dtd">
<svg style="fill:none;stroke:none;fill-rule:evenodd;clip-rule:evenodd;stroke-linecap:round;stroke-linejoin:round;stroke-miterlimit:1.5;" version="1.1" xmlns="http://www.w3.org/2000/svg" xmlns:xlink="http://www.w3.org/1999/xlink" width="877" height="840" viewBox="0 0 877 840"><style class="text-font-style fontImports" data-font-family="Roboto">@import url(https://fonts.googleapis.com/css2?family=Roboto:wght@400;700&amp;amp;display=block);</style><g id="items" style="isolation: isolate"><g id="blend" style="mix-blend-mode: normal"><g id="g-root-cp_resolution_g-resolution_1lxetjg1hwjk7j-fill" data-item-order="-616765" transform="translate(446, 530)"></g><g id="g-root-cp_6_g-6_1qd8bnw1hwjk74-fill" data-item-order="-616759" transform="translate(266, 434)"></g><g id="g-root-cp_5_g-5_1hhlbf01hwjkzt-fill" data-item-order="-616753" transform="translate(266, 288.376953125)"></g><g id="g-root-cp_4_g-4_1hhlbf01hwjkzu-fill" data-item-order="-616747" transform="translate(340.2030029296875, 254)"></g><g id="g-root-cp_3_g-3_1hhlbf01hwjkzv-fill" data-item-order="-616741" transform="translate(479.42999267578125, 262.82421875)"></g><g id="g-root-cp_2_g-2_1d1rtak1hwjls4-fill" data-item-order="-616735" transform="translate(533.426025390625, 378.4296875)"></g><g id="g-root-cp_1_g-1_1d1rtak1hwjls5-fill" data-item-order="-616729" transform="translate(445.9959716796875, 497.53515625)"></g><g id="g-root-cp_problem_g-problem_1d1rtak1hwjls6-fill" data-item-order="-616723" transform="translate(218, 542)"></g><g id="g-root-tx_communit_1lt1l3g1hws0ed-fill" data-item-order="0" transform="translate(158, 266)"><g id="tx_communit_1lt1l3g1hws0ed-fill-merged" stroke="none" fill="#ffffff" fill-opacity="1"><g><text style="font: bold 20px Roboto, sans-serif; white-space: pre;" transform="translate(118, 34)" font-weight="bold" font-size="20px" font-family="Roboto, sans-serif"><tspan x="-105.59" y="-0.5" dominant-baseline="ideographic">Community </tspan><tspan x="-103.02" y="23.5" dominant-baseline="ideographic">Investment</tspan></text></g></g></g><g id="g-root-ic_woma_3dybw1hwp8nh-fill" data-item-order="0" transform="translate(524, 308)"></g><g id="g-root-tx_practiti_qp24241hws26a-fill" data-item-order="0" transform="translate(602, 278)"><g id="tx_practiti_qp24241hws26a-fill-merged" stroke="none" fill="#ffffff" fill-opacity="1"><g><text style="font: 20px Roboto, sans-serif; white-space: pre;" transform="translate(10, 34)" font-size="20px" font-family="Roboto, sans-serif"><tspan x="2" y="-0.5" dominant-baseline="ideographic">Practitioners learn </tspan><tspan x="2" y="23.5" dominant-baseline="ideographic">and connect</tspan></text></g></g></g><g id="g-root-tx_profitsi_18hl2q41hws1za-fill" data-item-order="0" transform="translate(98, 326)"><g id="tx_profitsi_18hl2q41hws1za-fill-merged" stroke="none" fill="#ffffff" fill-opacity="1"><g><text style="font: 20px Roboto, sans-serif; white-space: pre;" transform="translate(178, 34)" font-size="20px" font-family="Roboto, sans-serif"><tspan x="-161.21" y="-0.5" dominant-baseline="ideographic">Profits invested in </tspan><tspan x="-118.23" y="23.5" dominant-baseline="ideographic">communities</tspan></text></g></g></g><g id="g-root-ic_appr_qnt5vw1hwff2e-fill" data-item-order="0" transform="translate(294.5, 344)"></g><g id="g-root-tx_membersh_2rkek1hws26c-fill" data-item-order="0" transform="translate(332, 158)"><g id="tx_membersh_2rkek1hws26c-fill-merged" stroke="none" fill="#ffffff" fill-opacity="1"><g><text style="font: 20px Roboto, sans-serif; white-space: pre;" transform="translate(94, 46)" font-size="20px" font-family="Roboto, sans-serif"><tspan x="-81.54" y="-12.5" dominant-baseline="ideographic">Memberships and </tspan><tspan x="-76.32" y="11.5" dominant-baseline="ideographic">training generate </tspan><tspan x="-36.43" y="35.5" dominant-baseline="ideographic">revenue</tspan></text></g></g></g><g id="g-root-tx_platform_4gpn9o1hws2dr-fill" data-item-order="0" transform="translate(651, 386)"><g id="tx_platform_4gpn9o1hws2dr-fill-merged" stroke="none" fill="#ffffff" fill-opacity="1"><g><text style="font: bold 20px Roboto, sans-serif; white-space: pre;" transform="translate(10, 22)" font-weight="bold" font-size="20px" font-family="Roboto, sans-serif"><tspan x="2" y="11.5" dominant-baseline="ideographic">Platform Growth</tspan></text></g></g></g><g id="g-root-tx_communit_v6r1fw1hws0ef-fill" data-item-order="0" transform="translate(98, 410)"><g id="tx_communit_v6r1fw1hws0ef-fill-merged" stroke="none" fill="#ffffff" fill-opacity="1"><g><text style="font: bold 20px Roboto, sans-serif; white-space: pre;" transform="translate(118, 34)" font-weight="bold" font-size="20px" font-family="Roboto, sans-serif"><tspan x="-105.59" y="-0.5" dominant-baseline="ideographic">Community </tspan><tspan x="-94.67" y="23.5" dominant-baseline="ideographic">Expansion</tspan></text></g></g></g><g id="g-root-tx_revenueg_de82rw1hws0lf-fill" data-item-order="0" transform="translate(362, 98)"><g id="tx_revenueg_de82rw1hws0lf-fill-merged" stroke="none" fill="#ffffff" fill-opacity="1"><g><text style="font: bold 20px Roboto, sans-serif; white-space: pre;" transform="translate(64, 34)" font-weight="bold" font-size="20px" font-family="Roboto, sans-serif"><tspan x="-38.76" y="-0.5" dominant-baseline="ideographic">Revenue </tspan><tspan x="-49.36" y="23.5" dominant-baseline="ideographic">Generation</tspan></text></g></g></g><g id="g-root-tx_justiceh_1d2edjg1hwqn7m-fill" data-item-order="0" transform="translate(350, 425)"><g id="tx_justiceh_1d2edjg1hwqn7m-fill-merged" stroke="none" fill="#ffffff" fill-opacity="1"><g><text style="font: bold 20px Roboto, sans-serif; white-space: pre;" transform="translate(106, 22)" font-weight="bold" font-size="20px" font-family="Roboto, sans-serif"><tspan x="-93.13" y="11.5" dominant-baseline="ideographic">JusticeHub Platform</tspan></text></g></g></g><g id="g-root-ic_grap_qofjt81hwnt3e-fill" data-item-order="0" transform="translate(566, 428)"></g><g id="g-root-ic_add_mgqaz01hwfci0-fill" data-item-order="0" transform="translate(290, 464)"></g><g id="g-root-tx_platform_1lr65u41hws1e0-fill" data-item-order="0" transform="translate(651, 422)"><g id="tx_platform_1lr65u41hws1e0-fill-merged" stroke="none" fill="#ffffff" fill-opacity="1"><g><text style="font: 20px Roboto, sans-serif; white-space: pre;" transform="translate(10, 46)" font-size="20px" font-family="Roboto, sans-serif"><tspan x="2" y="-12.5" dominant-baseline="ideographic">Platform </tspan><tspan x="2" y="11.5" dominant-baseline="ideographic">improves with </tspan><tspan x="2" y="35.5" dominant-baseline="ideographic">stories</tspan></text></g></g></g><g id="g-root-tx_morecomm_hvaj2k1hws1zc-fill" data-item-order="0" transform="translate(38, 470)"><g id="tx_morecomm_hvaj2k1hws1zc-fill-merged" stroke="none" fill="#ffffff" fill-opacity="1"><g><text style="font: 20px Roboto, sans-serif; white-space: pre;" transform="translate(178, 46)" font-size="20px" font-family="Roboto, sans-serif"><tspan x="-48.07" y="-12.5" dominant-baseline="ideographic">More </tspan><tspan x="-155.28" y="11.5" dominant-baseline="ideographic">communities join </tspan><tspan x="-78.2" y="35.5" dominant-baseline="ideographic">platform</tspan></text></g></g></g><g id="g-root-tx_economic_1qa41e41hws1sa-fill" data-item-order="0" transform="translate(602, 710)"><g id="tx_economic_1qa41e41hws1sa-fill-merged" stroke="none" fill="#ffffff" fill-opacity="1"><g><text style="font: 20px Roboto, sans-serif; white-space: pre;" transform="translate(82, 46)" font-size="20px" font-family="Roboto, sans-serif"><tspan x="-66.39" y="-12.5" dominant-baseline="ideographic">Economic self-</tspan><tspan x="-62.57" y="11.5" dominant-baseline="ideographic">determination </tspan><tspan x="-40.15" y="35.5" dominant-baseline="ideographic">achieved</tspan></text></g></g></g><g id="g-root-tx_justiceh_1464t1o1hwjmkv-fill" data-item-order="0" transform="translate(158.5, 38)"><g id="tx_justiceh_1464t1o1hwjmkv-fill-merged" stroke="none" fill="#ffffff" fill-opacity="1"><g><text style="font: bold 25px Roboto, sans-serif; white-space: pre;" transform="translate(280, 28)" font-weight="bold" font-size="25px" font-family="Roboto, sans-serif"><tspan x="-264.66" y="14.5" dominant-baseline="ideographic">JusticeHub: Empowering Community Solutions</tspan></text></g></g></g><g id="g-root-ic_book_1lynrpo1hwl1cc-fill" data-item-order="0" transform="translate(494, 536)"></g><g id="g-root-ic_symb_hznrik1hwjmkg-fill" data-item-order="0" transform="translate(302, 554)"></g><g id="g-root-ic_up_1qduvws1hwp88x-fill" data-item-order="0" transform="translate(603, 554)"></g><g id="g-root-tx_systemic_mg3tvw1hwqn7n-fill" data-item-order="0" transform="translate(153, 650)"><g id="tx_systemic_mg3tvw1hwqn7n-fill-merged" stroke="none" fill="#ffffff" fill-opacity="1"><g><text style="font: bold 20px Roboto, sans-serif; white-space: pre;" transform="translate(76, 34)" font-weight="bold" font-size="20px" font-family="Roboto, sans-serif"><tspan x="-41.64" y="-0.5" dominant-baseline="ideographic">Systemic </tspan><tspan x="-61.07" y="23.5" dominant-baseline="ideographic">Disadvantage</tspan></text></g></g></g><g id="g-root-tx_knowledg_18egpak1hws0st-fill" data-item-order="0" transform="translate(387.5, 650)"><g id="tx_knowledg_18egpak1hws0st-fill-merged" stroke="none" fill="#ffffff" fill-opacity="1"><g><text style="font: bold 20px Roboto, sans-serif; white-space: pre;" transform="translate(70, 34)" font-weight="bold" font-size="20px" font-family="Roboto, sans-serif"><tspan x="-52.2" y="-0.5" dominant-baseline="ideographic">Knowledge </tspan><tspan x="-37.22" y="23.5" dominant-baseline="ideographic">Sharing</tspan></text></g></g></g><g id="g-root-tx_communit_4kghsc1hws0eh-fill" data-item-order="0" transform="translate(614, 650)"><g id="tx_communit_4kghsc1hws0eh-fill-merged" stroke="none" fill="#ffffff" fill-opacity="1"><g><text style="font: bold 20px Roboto, sans-serif; white-space: pre;" transform="translate(70, 34)" font-weight="bold" font-size="20px" font-family="Roboto, sans-serif"><tspan x="-53.44" y="-0.5" dominant-baseline="ideographic">Community </tspan><tspan x="-55.13" y="23.5" dominant-baseline="ideographic">Sovereignty</tspan></text></g></g></g><g id="g-root-tx_youthove_1uuxc7g1hwqn0k-fill" data-item-order="0" transform="translate(129, 710)"><g id="tx_youthove_1uuxc7g1hwqn0k-fill-merged" stroke="none" fill="#ffffff" fill-opacity="1"><g><text style="font: 20px Roboto, sans-serif; white-space: pre;" transform="translate(100, 46)" font-size="20px" font-family="Roboto, sans-serif"><tspan x="-27.16" y="-12.5" dominant-baseline="ideographic">Youth </tspan><tspan x="-85.02" y="11.5" dominant-baseline="ideographic">overrepresentation </tspan><tspan x="-53.88" y="35.5" dominant-baseline="ideographic">in detention</tspan></text></g></g></g><g id="g-root-tx_communit_qnt5vw1hws006-fill" data-item-order="0" transform="translate(375.5, 710)"><g id="tx_communit_qnt5vw1hws006-fill-merged" stroke="none" fill="#ffffff" fill-opacity="1"><g><text style="font: 20px Roboto, sans-serif; white-space: pre;" transform="translate(82, 46)" font-size="20px" font-family="Roboto, sans-serif"><tspan x="-61.87" y="-12.5" dominant-baseline="ideographic">Communities </tspan><tspan x="-66.61" y="11.5" dominant-baseline="ideographic">share valuable </tspan><tspan x="-50.58" y="35.5" dominant-baseline="ideographic">knowledge</tspan></text></g></g></g><g id="g-root-tx_practiti_18gc4jw1hwrzt5-fill" data-item-order="0" transform="translate(602, 218)"><g id="tx_practiti_18gc4jw1hwrzt5-fill-merged" stroke="none" fill="#ffffff" fill-opacity="1"><g><text style="font: bold 20px Roboto, sans-serif; white-space: pre;" transform="translate(10, 34)" font-weight="bold" font-size="20px" font-family="Roboto, sans-serif"><tspan x="2" y="-0.5" dominant-baseline="ideographic">Practitioner </tspan><tspan x="2" y="23.5" dominant-baseline="ideographic">Usage</tspan></text></g></g></g><g id="g-root-ic_bulb_1480bgs1hwcjd8-fill" data-item-order="0" transform="translate(402.5, 270.5)"></g><g id="g-root-cp_resolution_g-resolution_1lxetjg1hwjk7j-stroke" data-item-order="-616765" transform="translate(446, 530)"><g id="cp_resolution_g-resolution_1lxetjg1hwjk7j-stroke" fill="none" stroke-linecap="round" stroke-linejoin="round" stroke-miterlimit="4" stroke="#ffffff" stroke-width="1" stroke-opacity="1"><g><path d="M 10 94L 237.9766 94L 237.9766 106L 285.9766 58L 237.9766 10L 237.9766 22L 153.975 22"></path></g></g></g><g id="g-root-cp_6_g-6_1qd8bnw1hwjk74-stroke" data-item-order="-616759" transform="translate(266, 434)"><g id="cp_6_g-6_1qd8bnw1hwjk74-stroke" fill="none" stroke-linecap="round" stroke-linejoin="round" stroke-miterlimit="4" stroke="#ffffff" stroke-width="1" stroke-opacity="1"><g><path d="M 46 118C 36.9793 105.9725 29.4808 92.835 23.7017 78.883C 14.6558 57.0444 10 33.6379 10 10M 81.9107 10C 81.9107 24.1945 84.7065 38.25 90.1385 51.364C 95.5705 64.478 103.5323 76.3937 113.5693 86.4307C 123.6063 96.4677 135.522 104.4295 148.636 109.8615C 160.3957 114.7325 172.9124 117.4837 185.6076 118"></path></g></g></g><g id="g-root-cp_5_g-5_1hhlbf01hwjkzt-stroke" data-item-order="-616753" transform="translate(266, 288.376953125)"><g id="cp_5_g-5_1hhlbf01hwjkzt-stroke" fill="none" stroke-linecap="round" stroke-linejoin="round" stroke-miterlimit="4" stroke="#ffffff" stroke-width="1" stroke-opacity="1"><g><path d="M 84.199 10C 61.2181 26.6965 42.515 48.595 29.6189 73.9048C 16.7229 99.2147 10 127.2174 10 155.6233L 81.9107 155.6233C 81.9107 138.5657 85.9478 121.7502 93.6918 106.5517C 101.4358 91.3532 112.667 78.2033 126.4669 68.1771"></path></g></g></g><g id="g-root-cp_4_g-4_1hhlbf01hwjkzu-stroke" data-item-order="-616747" transform="translate(340.2030029296875, 254)"><g id="cp_4_g-4_1hhlbf01hwjkzu-stroke" fill="none" stroke-linecap="round" stroke-linejoin="round" stroke-miterlimit="4" stroke="#ffffff" stroke-width="1" stroke-opacity="1"><g><path d="M 171.4252 18.8113C 144.4098 10.0327 115.7003 7.7725 87.644 12.2154C 59.5877 16.6584 32.9813 27.6783 10 44.3743L 52.2666 102.5524C 66.0668 92.5265 82.0438 85.909 98.8915 83.2411C 115.7392 80.5731 132.9792 81.9304 149.2018 87.2019"></path></g></g></g><g id="g-root-cp_3_g-3_1hhlbf01hwjkzv-stroke" data-item-order="-616741" transform="translate(479.42999267578125, 262.82421875)"><g id="cp_3_g-3_1hhlbf01hwjkzv-stroke" fill="none" stroke-linecap="round" stroke-linejoin="round" stroke-miterlimit="4" stroke="#ffffff" stroke-width="1" stroke-opacity="1"><g><path d="M 147.7758 125.5989C 139.0053 98.5809 123.965 74.0222 103.8845 53.9307C 83.8041 33.8392 59.2536 18.7853 32.2405 10L 10 78.385C 26.2213 83.6606 40.9637 92.7004 53.022 104.7652C 65.0802 116.8301 74.1119 131.5775 79.3785 147.8017"></path></g></g></g><g id="g-root-cp_2_g-2_1d1rtak1hwjls4-stroke" data-item-order="-616735" transform="translate(533.426025390625, 378.4296875)"><g id="cp_2_g-2_1d1rtak1hwjls4-stroke" fill="none" stroke-linecap="round" stroke-linejoin="round" stroke-miterlimit="4" stroke="#ffffff" stroke-width="1" stroke-opacity="1"><g><path d="M 68.164 171.4165C 84.8676 148.4408 95.8964 121.8381 100.3487 93.7833C 104.8011 65.7285 102.5504 37.0183 93.7809 10L 25.3829 32.2005C 30.6489 48.4249 32.0004 65.6653 29.3268 82.5121C 26.6532 99.3588 20.0305 115.3337 10 129.1305"></path></g></g></g><g id="g-root-cp_1_g-1_1d1rtak1hwjls5-stroke" data-item-order="-616729" transform="translate(445.9959716796875, 497.53515625)"><g id="cp_1_g-1_1d1rtak1hwjls5-stroke" fill="none" stroke-linecap="round" stroke-linejoin="round" stroke-miterlimit="4" stroke="#ffffff" stroke-width="1" stroke-opacity="1"><g><path d="M 10 126.465C 38.4059 126.4655 66.4086 119.7433 91.7187 106.8478C 117.0288 93.9523 138.9276 75.2497 155.6246 52.2692L 97.4484 10C 87.4219 23.7997 74.2718 35.0305 59.0732 42.7742C 43.8746 50.5179 27.0591 54.5546 10.0015 54.5542"></path></g></g></g><g id="g-root-cp_problem_g-problem_1d1rtak1hwjls6-stroke" data-item-order="-616723" transform="translate(218, 542)"><g id="cp_problem_g-problem_1d1rtak1hwjls6-stroke" fill="none" stroke-linecap="round" stroke-linejoin="round" stroke-miterlimit="4" stroke="#ffffff" stroke-width="1" stroke-opacity="1"><g><path d="M 10 10L 238 10L 238 82L 10 82L 10 10Z"></path></g></g></g><g id="g-root-tx_communit_1lt1l3g1hws0ed-stroke" data-item-order="0" transform="translate(158, 266)"></g><g id="g-root-ic_woma_3dybw1hwp8nh-stroke" data-item-order="0" transform="translate(524, 308)"><g id="ic_woma_3dybw1hwp8nh-stroke" fill="none" stroke-linecap="round" stroke-linejoin="round" stroke-miterlimit="4" stroke="#ffffff" stroke-width="1" stroke-opacity="1"><g><path d="M 57 29C 57 30.10457 56.104568 31 55 31L 44 31L 37 37L 37 31L 35 31C 33.895432 31 33 30.10457 33 29L 33 13C 33 11.895431 33.895432 11 35 11L 55 11C 56.104568 11 57 11.895431 57 13ZM 28.1 52C 31.131567 52.329498 34.178406 51.532196 36.66 49.759998C 35.379997 48.459999 34.48 47.66 34.16 42.68C 33.639999 35.239998 28.639999 32.68 24.32 32.68C 20 32.68 15.02 35.299999 14.5 42.68C 14.16 47.599998 13.28 48.400002 12 49.700001C 14.471688 51.496838 17.520596 52.316055 20.560001 52.000004M 35.02 57C 33.299999 56.299999 31.280001 55.580002 29.02 54.759998C 28.422441 54.542454 28.02347 53.975914 28.02 53.34L 28.02 50.580002C 28.024391 50.153538 28.205437 49.747993 28.519999 49.459999C 29.649416 48.436291 30.295546 46.984314 30.299999 45.459999L 30.299999 41.639999C 27.953709 41.258892 25.823469 40.044655 24.299999 38.220001C 22.782455 40.051723 20.649355 41.267593 18.299999 41.639999L 18.299999 45.419998C 18.304455 46.944313 18.950584 48.396294 20.08 49.419998C 20.394562 49.707993 20.575607 50.113537 20.58 50.539997L 20.58 53.299999C 20.57653 53.935917 20.177559 54.502457 19.58 54.719997C 17.4 55.540001 15.38 56.259998 13.58 56.959999M 39 16L 43 20L 39 24M 45 23L 53 23"></path></g></g></g><g id="g-root-tx_practiti_qp24241hws26a-stroke" data-item-order="0" transform="translate(602, 278)"></g><g id="g-root-tx_profitsi_18hl2q41hws1za-stroke" data-item-order="0" transform="translate(98, 326)"></g><g id="g-root-ic_appr_qnt5vw1hwff2e-stroke" data-item-order="0" transform="translate(294.5, 344)"><g id="ic_appr_qnt5vw1hwff2e-stroke" fill="none" stroke-linecap="round" stroke-linejoin="round" stroke-miterlimit="4" stroke="#ffffff" stroke-width="1" stroke-opacity="1"><g><path d="M 57 47C 57 52.522846 52.522846 57 47 57C 41.477154 57 37 52.522846 37 47C 37 41.477154 41.477154 37 47 37M 43 47L 46.240002 49.43C 46.665913 49.749241 47.267254 49.678909 47.608002 49.27L 57 38M 11.008 21C 11.008 26.522848 15.485153 31 21.007999 31C 26.530848 31 31.007999 26.522848 31.007999 21C 31.007999 15.477153 26.530848 11 21.007999 11C 15.485153 11 11.008 15.477153 11.008 21ZM 21.007999 25L 21.007999 27M 21.007999 15L 21.007999 17M 17 25L 23 25C 24.104568 25 25 24.104568 25 23C 25 21.895432 24.104568 21 23 21L 19 21C 17.895432 21 17 20.104568 17 19C 17 17.895432 17.895432 17 19 17L 25 17M 34 55C 22.40202 55 13 45.59798 13 34M 34 13C 45.59798 13 55 22.40202 55 34"></path></g></g></g><g id="g-root-tx_membersh_2rkek1hws26c-stroke" data-item-order="0" transform="translate(332, 158)"></g><g id="g-root-tx_platform_4gpn9o1hws2dr-stroke" data-item-order="0" transform="translate(651, 386)"></g><g id="g-root-tx_communit_v6r1fw1hws0ef-stroke" data-item-order="0" transform="translate(98, 410)"></g><g id="g-root-tx_revenueg_de82rw1hws0lf-stroke" data-item-order="0" transform="translate(362, 98)"></g><g id="g-root-tx_justiceh_1d2edjg1hwqn7m-stroke" data-item-order="0" transform="translate(350, 425)"></g><g id="g-root-ic_grap_qofjt81hwnt3e-stroke" data-item-order="0" transform="translate(566, 428)"><g id="ic_grap_qofjt81hwnt3e-stroke" fill="none" stroke-linecap="round" stroke-linejoin="round" stroke-miterlimit="4" stroke="#ffffff" stroke-width="1" stroke-opacity="1"><g><path d="M 20 34L 20 40M 24 57L 25 47L 29 47L 29 39C 29 34.029438 24.970562 30 20 30C 15.029438 30 11 34.029438 11 39L 11 47L 15 47L 16 57M 14.860001 18C 16.740438 19.91843 19.31366 20.999617 22 21C 23.37554 21.004684 24.737255 20.725533 26 20.18M 14.04 21C 14.039658 24.313951 16.717094 27.000622 20.02 27.000622C 23.322905 27.000622 26.000341 24.313951 26 21C 26.000341 17.686049 23.322905 14.999378 20.02 14.999378C 16.717094 14.999378 14.039658 17.686049 14.04 21M 26 11L 55 11C 56.104568 11 57 11.895431 57 13L 57 33C 57 34.104568 56.104568 35 55 35L 34 35M 39 35L 39 47M 35 47L 43 47M 32 25L 38 19L 41 22L 48 15M 43 15L 48 15L 48 20M 45 27L 49 27M 45 31L 51 31"></path></g></g></g><g id="g-root-ic_add_mgqaz01hwfci0-stroke" data-item-order="0" transform="translate(290, 464)"><g id="ic_add_mgqaz01hwfci0-stroke" fill="none" stroke-linecap="round" stroke-linejoin="round" stroke-miterlimit="4" stroke="#ffffff" stroke-width="1" stroke-opacity="1"><g><path d="M 53 19C 53 21.209139 51.209141 23 49 23L 15 23C 12.790861 23 11 21.209139 11 19L 11 15C 11 12.790861 12.790861 11 15 11L 49 11C 51.209141 11 53 12.790861 53 15ZM 15 35C 12.790861 35 11 33.209137 11 31L 11 27C 11 24.790861 12.790861 23 15 23L 49 23C 51.209141 23 53 24.790861 53 27L 53 30M 19.5 16.5C 19.223858 16.5 19 16.723858 19 17C 19 17.276142 19.223858 17.5 19.5 17.5C 19.776142 17.5 20 17.276142 20 17C 20 16.723858 19.776142 16.5 19.5 16.5L 19.5 16.5M 26.5 16.5C 26.223858 16.5 26 16.723858 26 17C 26 17.276142 26.223858 17.5 26.5 17.5C 26.776142 17.5 27 17.276142 27 17C 27 16.723858 26.776142 16.5 26.5 16.5L 26.5 16.5M 19.5 28.5C 19.223858 28.5 19 28.723858 19 29C 19 29.276142 19.223858 29.5 19.5 29.5C 19.776142 29.5 20 29.276142 20 29C 20 28.723858 19.776142 28.5 19.5 28.5L 19.5 28.5M 26.5 28.5C 26.223858 28.5 26 28.723858 26 29C 26 29.276142 26.223858 29.5 26.5 29.5C 26.776142 29.5 27 29.276142 27 29C 27 28.723858 26.776142 28.5 26.5 28.5L 26.5 28.5M 28 47L 15 47C 12.790861 47 11 45.209141 11 43L 11 39C 11 36.790863 12.790861 35 15 35L 31 35M 19.5 40.5C 19.223858 40.5 19 40.723858 19 41C 19 41.276142 19.223858 41.5 19.5 41.5C 19.776142 41.5 20 41.276142 20 41C 20 40.723858 19.776142 40.5 19.5 40.5L 19.5 40.5M 26.5 40.5C 26.223858 40.5 26 40.723858 26 41C 26 41.276142 26.223858 41.5 26.5 41.5C 26.776142 41.5 27 41.276142 27 41C 27 40.723858 26.776142 40.5 26.5 40.5L 26.5 40.5M 33 45C 33 51.627419 38.372581 57 45 57C 51.627419 57 57 51.627419 57 45C 57 38.372581 51.627419 33 45 33C 38.372581 33 33 38.372581 33 45ZM 45 39L 45 51M 51 45L 39 45"></path></g></g></g><g id="g-root-tx_platform_1lr65u41hws1e0-stroke" data-item-order="0" transform="translate(651, 422)"></g><g id="g-root-tx_morecomm_hvaj2k1hws1zc-stroke" data-item-order="0" transform="translate(38, 470)"></g><g id="g-root-tx_economic_1qa41e41hws1sa-stroke" data-item-order="0" transform="translate(602, 710)"></g><g id="g-root-tx_justiceh_1464t1o1hwjmkv-stroke" data-item-order="0" transform="translate(158.5, 38)"></g><g id="g-root-ic_book_1lynrpo1hwl1cc-stroke" data-item-order="0" transform="translate(494, 536)"><g id="ic_book_1lynrpo1hwl1cc-stroke" fill="none" stroke-linecap="round" stroke-linejoin="round" stroke-miterlimit="4" stroke="#ffffff" stroke-width="1" stroke-opacity="1"><g><path d="M 38.669998 14.889999L 38.669998 38.77C 38.669998 38.77 42.091999 35.028 53.633999 34.879997C 54.024101 34.875618 54.338028 34.558125 54.338001 34.167999L 54.338001 11.712C 54.337479 11.521588 54.260921 11.339272 54.125343 11.205572C 53.989765 11.071873 53.8064 10.997866 53.616001 11C 51.472683 11.022204 49.333775 11.199332 47.216 11.53C 44.144642 11.967229 41.218445 13.117981 38.672001 14.889999M 38.669998 14.889999L 38.669998 38.77C 38.669998 38.77 35.246002 35.028 23.704 34.879997C 23.313902 34.875618 22.999977 34.558125 23 34.167999L 23 11.712C 23.000523 11.521588 23.07708 11.339272 23.212656 11.205572C 23.348234 11.071873 23.531599 10.997866 23.722 11C 25.865322 11.022114 28.004238 11.199243 30.122 11.53C 33.194038 11.966999 36.120937 13.117758 38.667999 14.89M 13.662 55L 25.397999 56.894001C 27.840635 57.233692 30.32616 56.732212 32.445999 55.472L 44.731998 48.167999C 45.559669 47.678009 46.158455 46.878933 46.396324 45.946972C 46.63419 45.015015 46.491604 44.026714 46 43.200001L 46 43.200001C 44.978401 41.481113 42.756676 40.916054 41.037998 41.937996L 31.438 47.644001M 13.662 45.580002L 18.646 42.618C 20.490156 41.519958 22.618637 40.993755 24.762001 41.106003L 29.724001 41.363998C 30.648096 41.368271 31.530199 41.750488 32.165257 42.421814C 32.800316 43.09314 33.133007 43.99509 33.085999 44.917999L 33.085999 44.917999C 32.999668 46.621685 31.65736 47.994015 29.956001 48.118004L 23.619999 48.084"></path></g></g></g><g id="g-root-ic_symb_hznrik1hwjmkg-stroke" data-item-order="0" transform="translate(302, 554)"><g id="ic_symb_hznrik1hwjmkg-stroke" fill="none" stroke-linecap="round" stroke-linejoin="round" stroke-miterlimit="4" stroke="#ffffff" stroke-width="1" stroke-opacity="1"><g><path d="M 11.5 34C 11.500001 46.426407 21.573593 56.5 34 56.5C 46.426407 56.5 56.5 46.426407 56.5 34C 56.5 21.573593 46.426407 11.500001 34 11.500001C 21.573593 11.500001 11.500001 21.573593 11.500001 34M 49.801601 29.499599C 49.3074 28.101379 47.769001 27.0996 46.201599 27.0996C 44.288399 27.0996 42.601601 28.6506 42.601601 30.563801C 42.601601 32.054199 43.615799 33.353203 45.0616 33.7146L 47.0956 34.223C 48.685799 34.620598 49.801601 36.049599 49.801601 37.688999L 49.801601 37.899597C 49.801601 39.887802 48.1898 41.499599 46.201599 41.499599C 44.634201 41.499599 43.095798 40.497803 42.601601 39.099602M 25.40312 28.9C 24.90892 27.50176 23.370579 26.5 21.80312 26.5C 19.889881 26.5 18.203121 28.051001 18.203121 29.964239C 18.203121 31.454599 19.217381 32.753601 20.66316 33.114998L 22.697079 33.623398C 24.287441 34.021 25.403141 35.450001 25.403141 37.089401L 25.403141 37.299999C 25.403141 39.2882 23.791359 40.900002 21.80312 40.900002C 20.235661 40.900002 18.69734 39.898201 18.203121 38.5M 30.398399 30.1L 30.398399 37.299999C 30.398399 39.2882 32.010201 40.900002 33.998398 40.900002C 35.986603 40.900002 37.5984 39.2882 37.5984 37.299999L 37.5984 30.1C 37.5984 28.11178 35.986603 26.5 33.998398 26.5C 32.010201 26.5 30.398399 28.11178 30.398399 30.1Z"></path></g></g></g><g id="g-root-ic_up_1qduvws1hwp88x-stroke" data-item-order="0" transform="translate(603, 554)"><g id="ic_up_1qduvws1hwp88x-stroke" fill="none" stroke-linecap="round" stroke-linejoin="round" stroke-miterlimit="4" stroke="#ffffff" stroke-width="1" stroke-opacity="1"><g><path d="M 28 24.784L 22 24.784C 21.450001 24.784 21.306 24.454 21.68 24.052L 33.32 11.518C 33.493355 11.324986 33.740562 11.214734 34 11.214734C 34.259434 11.214734 34.506645 11.324986 34.68 11.518L 46.32 24.052C 46.694 24.452 46.549999 24.784 46 24.784L 40 24.784L 40 55.784C 40 56.336285 39.552284 56.784 39 56.784L 29 56.784C 28.447716 56.784 28 56.336285 28 55.784Z"></path></g></g></g><g id="g-root-tx_systemic_mg3tvw1hwqn7n-stroke" data-item-order="0" transform="translate(153, 650)"></g><g id="g-root-tx_knowledg_18egpak1hws0st-stroke" data-item-order="0" transform="translate(387.5, 650)"></g><g id="g-root-tx_communit_4kghsc1hws0eh-stroke" data-item-order="0" transform="translate(614, 650)"></g><g id="g-root-tx_youthove_1uuxc7g1hwqn0k-stroke" data-item-order="0" transform="translate(129, 710)"></g><g id="g-root-tx_communit_qnt5vw1hws006-stroke" data-item-order="0" transform="translate(375.5, 710)"></g><g id="g-root-tx_practiti_18gc4jw1hwrzt5-stroke" data-item-order="0" transform="translate(602, 218)"></g><g id="g-root-ic_bulb_1480bgs1hwcjd8-stroke" data-item-order="0" transform="translate(402.5, 270.5)"><g id="ic_bulb_1480bgs1hwcjd8-stroke" fill="none" stroke-linecap="round" stroke-linejoin="round" stroke-miterlimit="4" stroke="#ffffff" stroke-width="1" stroke-opacity="1"><g><path d="M 29 51.004002L 39 51.004002M 29 55.004002L 39 55.004002M 34 55.004002L 34 57.004002M 29 46C 29 46.552284 29.447716 47 30 47L 38 47C 38.552284 47 39 46.552284 39 46L 39 44.321999C 46.521084 42.439865 51.84816 35.751518 52 28C 51.715763 18.338646 43.661823 10.732143 34 11C 24.338177 10.732143 16.284235 18.338646 16 28C 16.151844 35.751518 21.478918 42.439865 29 44.322002ZM 37 23L 33.599998 23C 32.446991 22.991116 31.425859 23.742687 31.091608 24.846222C 30.757359 25.949757 31.189842 27.141613 32.153999 27.774L 35.834 30.226C 36.796234 30.857191 37.229076 32.045841 36.898022 33.14798C 36.566963 34.250114 35.550777 35.00351 34.400002 35L 31 35M 35 23.004L 35 21.004M 33 37.003998L 33 35.003998"></path></g></g></g></g></g></svg>