<?xml version="1.0" encoding="utf-8" standalone="yes"?>
<!DOCTYPE svg PUBLIC "-//W3C//DTD SVG 1.1//EN" "http://www.w3.org/Graphics/SVG/1.1/DTD/svg11.dtd">
<svg style="fill:none;stroke:none;fill-rule:evenodd;clip-rule:evenodd;stroke-linecap:round;stroke-linejoin:round;stroke-miterlimit:1.5;" version="1.1" xmlns="http://www.w3.org/2000/svg" xmlns:xlink="http://www.w3.org/1999/xlink" width="948" height="684" viewBox="0 0 948 684"><style class="text-font-style fontImports" data-font-family="Roboto">@import url(https://fonts.googleapis.com/css2?family=Roboto:wght@400;700&amp;amp;display=block);</style><g id="items" style="isolation: isolate"><g id="blend" style="mix-blend-mode: normal"><g id="g-root-sy_0_arrow-left-stroke_7qkrn1lsp4w6-fill" data-item-order="-522129" transform="translate(193.99993896484375, 223.94140625)"></g><g id="g-root-sy_0_arrow-right-stroke_1qd7mhv1lsp5hr-fill" data-item-order="-522125" transform="translate(604.950927734375, 375)"></g><g id="g-root-cp_1_g-1_1ut14mb1lsp5hc-fill" data-item-order="-522123" transform="translate(206, 249.30859375)"></g><g id="g-root-cp_3_g-3_1lxe4df1lsp6a1-fill" data-item-order="-522119" transform="translate(422, 374.015625)"></g><g id="g-root-cp_6_g-6_1lxe4df1lsp6a2-fill" data-item-order="-522115" transform="translate(278.0249938964844, 374)"></g><g id="g-root-cp_4_g-4_1lxe4df1lsp6a3-fill" data-item-order="-522111" transform="translate(602, 249.29296875)"></g><g id="g-root-cp_2_g-2_1hi73c31lsp3wk-fill" data-item-order="-522107" transform="translate(277.5429992675781, 230)"></g><g id="g-root-cp_5_g-5_1hi73c31lsp3wl-fill" data-item-order="-522103" transform="translate(458, 230)"></g><g id="g-root-tx_profitsa_1um5wo31lsql8m-fill" data-item-order="0" transform="translate(506, 134)"><g id="tx_profitsa_1um5wo31lsql8m-fill-merged" stroke="none" fill="#000000" fill-opacity="1"><g><text style="font: 20px Roboto, sans-serif; white-space: pre;" transform="translate(82, 46)" font-size="20px" font-family="Roboto, sans-serif"><tspan x="-48.27" y="-12.5" dominant-baseline="ideographic">Profits are </tspan><tspan x="-67.8" y="11.5" dominant-baseline="ideographic">reinvested into </tspan><tspan x="-63.23" y="35.5" dominant-baseline="ideographic">communities.</tspan></text></g></g></g><g id="g-root-tx_theplatf_13ymeub1lsqj2g-fill" data-item-order="0" transform="translate(248, 134)"><g id="tx_theplatf_13ymeub1lsqj2g-fill-merged" stroke="none" fill="#000000" fill-opacity="1"><g><text style="font: 20px Roboto, sans-serif; white-space: pre;" transform="translate(100, 46)" font-size="20px" font-family="Roboto, sans-serif"><tspan x="-59.84" y="-12.5" dominant-baseline="ideographic">The platform </tspan><tspan x="-82.15" y="11.5" dominant-baseline="ideographic">expands with new </tspan><tspan x="-41.77" y="35.5" dominant-baseline="ideographic">features.</tspan></text></g></g></g><g id="g-root-tx_2_mg31k31lsp4ow-fill" data-item-order="0" transform="translate(368, 260)"><g id="tx_2_mg31k31lsp4ow-fill-merged" stroke="none" fill="#000000" fill-opacity="1"><g><text style="font: bold 20px Roboto, sans-serif; white-space: pre;" transform="translate(22, 22)" font-weight="bold" font-size="20px" font-family="Roboto, sans-serif"><tspan x="-5.74" y="11.5" dominant-baseline="ideographic">2</tspan></text></g></g></g><g id="g-root-tx_5_9m00z1lsp3wr-fill" data-item-order="0" transform="translate(542, 260)"><g id="tx_5_9m00z1lsp3wr-fill-merged" stroke="none" fill="#000000" fill-opacity="1"><g><text style="font: bold 20px Roboto, sans-serif; white-space: pre;" transform="translate(22, 22)" font-weight="bold" font-size="20px" font-family="Roboto, sans-serif"><tspan x="-5.74" y="11.5" dominant-baseline="ideographic">5</tspan></text></g></g></g><g id="g-root-tx_sharekno_1lz9jmr1lsp5al-fill" data-item-order="0" transform="translate(14, 326)"><g id="tx_sharekno_1lz9jmr1lsp5al-fill-merged" stroke="none" fill="#000000" fill-opacity="1"><g><text style="font: bold 20px Roboto, sans-serif; white-space: pre;" transform="translate(178, 22)" font-weight="bold" font-size="20px" font-family="Roboto, sans-serif"><tspan x="-158.55" y="11.5" dominant-baseline="ideographic">Share Knowledge</tspan></text></g></g></g><g id="g-root-tx_earnreve_dcbv6r1lsqj2j-fill" data-item-order="0" transform="translate(734, 338)"><g id="tx_earnreve_dcbv6r1lsqj2j-fill-merged" stroke="none" fill="#000000" fill-opacity="1"><g><text style="font: bold 20px Roboto, sans-serif; white-space: pre;" transform="translate(10, 22)" font-weight="bold" font-size="20px" font-family="Roboto, sans-serif"><tspan x="2" y="11.5" dominant-baseline="ideographic">Earn Revenue</tspan></text></g></g></g><g id="g-root-tx_1_qvwjoj1lsp3wn-fill" data-item-order="0" transform="translate(230, 362)"><g id="tx_1_qvwjoj1lsp3wn-fill-merged" stroke="none" fill="#000000" fill-opacity="1"><g><text style="font: bold 20px Roboto, sans-serif; white-space: pre;" transform="translate(22, 22)" font-weight="bold" font-size="20px" font-family="Roboto, sans-serif"><tspan x="-5.74" y="11.5" dominant-baseline="ideographic">1</tspan></text></g></g></g><g id="g-root-tx_investfu_vctf1lsqknh-fill" data-item-order="0" transform="translate(518, 98)"><g id="tx_investfu_vctf1lsqknh-fill-merged" stroke="none" fill="#000000" fill-opacity="1"><g><text style="font: bold 20px Roboto, sans-serif; white-space: pre;" transform="translate(70, 22)" font-weight="bold" font-size="20px" font-family="Roboto, sans-serif"><tspan x="-57.3" y="11.5" dominant-baseline="ideographic">Invest Funds</tspan></text></g></g></g><g id="g-root-tx_growplat_18nt19f1lsp6vj-fill" data-item-order="0" transform="translate(266, 98)"><g id="tx_growplat_18nt19f1lsp6vj-fill-merged" stroke="none" fill="#000000" fill-opacity="1"><g><text style="font: bold 20px Roboto, sans-serif; white-space: pre;" transform="translate(82, 22)" font-weight="bold" font-size="20px" font-family="Roboto, sans-serif"><tspan x="-65.18" y="11.5" dominant-baseline="ideographic">Grow Platform</tspan></text></g></g></g><g id="g-root-tx_communit_146qkyr1lsp5hi-fill" data-item-order="0" transform="translate(284, 38)"><g id="tx_communit_146qkyr1lsp5hi-fill-merged" stroke="none" fill="#000000" fill-opacity="1"><g><text style="font: bold 25px Roboto, sans-serif; white-space: pre;" transform="translate(184, 28)" font-weight="bold" font-size="25px" font-family="Roboto, sans-serif"><tspan x="-168.79" y="14.5" dominant-baseline="ideographic">Community Sovereignty Cycle</tspan></text></g></g></g><g id="g-root-tx_4_94mj6r1lsp69u-fill" data-item-order="0" transform="translate(662, 362)"><g id="tx_4_94mj6r1lsp69u-fill-merged" stroke="none" fill="#000000" fill-opacity="1"><g><text style="font: bold 20px Roboto, sans-serif; white-space: pre;" transform="translate(22, 22)" font-weight="bold" font-size="20px" font-family="Roboto, sans-serif"><tspan x="-5.74" y="11.5" dominant-baseline="ideographic">4</tspan></text></g></g></g><g id="g-root-tx_communit_1hjg1ib1lsp62u-fill" data-item-order="0" transform="translate(26, 362)"><g id="tx_communit_1hjg1ib1lsp62u-fill-merged" stroke="none" fill="#000000" fill-opacity="1"><g><text style="font: 20px Roboto, sans-serif; white-space: pre;" transform="translate(166, 46)" font-size="20px" font-family="Roboto, sans-serif"><tspan x="-120.77" y="-12.5" dominant-baseline="ideographic">Communities </tspan><tspan x="-152.58" y="11.5" dominant-baseline="ideographic">share knowledge </tspan><tspan x="-133.38" y="35.5" dominant-baseline="ideographic">and resources.</tspan></text></g></g></g><g id="g-root-tx_revenuei_8wid2b1lsqjus-fill" data-item-order="0" transform="translate(734, 374)"><g id="tx_revenuei_8wid2b1lsqjus-fill-merged" stroke="none" fill="#000000" fill-opacity="1"><g><text style="font: 20px Roboto, sans-serif; white-space: pre;" transform="translate(10, 46)" font-size="20px" font-family="Roboto, sans-serif"><tspan x="2" y="-12.5" dominant-baseline="ideographic">Revenue is </tspan><tspan x="2" y="11.5" dominant-baseline="ideographic">generated through </tspan><tspan x="2" y="35.5" dominant-baseline="ideographic">memberships.</tspan></text></g></g></g><g id="g-root-tx_6_1uuwjvn1lsp4hw-fill" data-item-order="0" transform="translate(362, 464)"><g id="tx_6_1uuwjvn1lsp4hw-fill-merged" stroke="none" fill="#000000" fill-opacity="1"><g><text style="font: bold 20px Roboto, sans-serif; white-space: pre;" transform="translate(22, 22)" font-weight="bold" font-size="20px" font-family="Roboto, sans-serif"><tspan x="-5.74" y="11.5" dominant-baseline="ideographic">6</tspan></text></g></g></g><g id="g-root-tx_3_dkg1b71lsp5hl-fill" data-item-order="0" transform="translate(494, 452)"><g id="tx_3_dkg1b71lsp5hl-fill-merged" stroke="none" fill="#000000" fill-opacity="1"><g><text style="font: bold 20px Roboto, sans-serif; white-space: pre;" transform="translate(22, 22)" font-weight="bold" font-size="20px" font-family="Roboto, sans-serif"><tspan x="-5.74" y="11.5" dominant-baseline="ideographic">3</tspan></text></g></g></g><g id="g-root-tx_practiti_qn5wgz1lsqkne-fill" data-item-order="0" transform="translate(476, 578)"><g id="tx_practiti_qn5wgz1lsqkne-fill-merged" stroke="none" fill="#000000" fill-opacity="1"><g><text style="font: 20px Roboto, sans-serif; white-space: pre;" transform="translate(112, 34)" font-size="20px" font-family="Roboto, sans-serif"><tspan x="-91.97" y="-0.5" dominant-baseline="ideographic">Practitioners use the </tspan><tspan x="-94.21" y="23.5" dominant-baseline="ideographic">platform for learning.</tspan></text></g></g></g><g id="g-root-tx_useplatf_ziswpv1lsqjup-fill" data-item-order="0" transform="translate(512, 542)"><g id="tx_useplatf_ziswpv1lsqjup-fill-merged" stroke="none" fill="#000000" fill-opacity="1"><g><text style="font: bold 20px Roboto, sans-serif; white-space: pre;" transform="translate(76, 22)" font-weight="bold" font-size="20px" font-family="Roboto, sans-serif"><tspan x="-59" y="11.5" dominant-baseline="ideographic">Use Platform</tspan></text></g></g></g><g id="g-root-tx_morecomm_1hbbvdv1lsqjns-fill" data-item-order="0" transform="translate(248, 578)"><g id="tx_morecomm_1hbbvdv1lsqjns-fill-merged" stroke="none" fill="#000000" fill-opacity="1"><g><text style="font: 20px Roboto, sans-serif; white-space: pre;" transform="translate(100, 34)" font-size="20px" font-family="Roboto, sans-serif"><tspan x="-86.11" y="-0.5" dominant-baseline="ideographic">More communities </tspan><tspan x="-78.31" y="23.5" dominant-baseline="ideographic">join the platform.</tspan></text></g></g></g><g id="g-root-tx_expandne_1lr5dib1lsqivj-fill" data-item-order="0" transform="translate(260, 542)"><g id="tx_expandne_1lr5dib1lsqivj-fill-merged" stroke="none" fill="#000000" fill-opacity="1"><g><text style="font: bold 20px Roboto, sans-serif; white-space: pre;" transform="translate(88, 22)" font-weight="bold" font-size="20px" font-family="Roboto, sans-serif"><tspan x="-73.25" y="11.5" dominant-baseline="ideographic">Expand Network</tspan></text></g></g></g><g id="g-root-sy_0_arrow-left-stroke_7qkrn1lsp4w6-stroke" data-item-order="-522129" transform="translate(193.99993896484375, 223.94140625)"><g id="sy_0_arrow-left-stroke_7qkrn1lsp4w6-stroke" fill="none" stroke-linecap="round" stroke-linejoin="round" stroke-miterlimit="4" stroke="#000000" stroke-width="1" stroke-opacity="1"><style>.fillAsStrokeColor-mk-8ye84j1nqchl9 { fill:#000000; }</style><g><path d="M 10 161.06C 10 126.47 21.5 92.85 42.69 65.51C 63.31 38.9 91.96 19.69 124.36 10.72"></path><path d="M 125.7 10.4L 121.7 14.4L 120.2 9Z" stroke-dasharray="none" class="fillAsStrokeColor-mk-8ye84j1nqchl9" fill="#000000"></path></g></g></g><g id="g-root-sy_0_arrow-right-stroke_1qd7mhv1lsp5hr-stroke" data-item-order="-522125" transform="translate(604.950927734375, 375)"><g id="sy_0_arrow-right-stroke_1qd7mhv1lsp5hr-stroke" fill="none" stroke-linecap="round" stroke-linejoin="round" stroke-miterlimit="4" stroke="#000000" stroke-width="1" stroke-opacity="1"><style>.fillAsStrokeColor-mk-8ye84j1nqchla { fill:#000000; }</style><g><path d="M 127.02 12.78C 126.42 46.39 114.98 78.94 94.36 105.55C 73.17 132.89 43.5 152.42 10 161.06"></path><path d="M 127 11.4L 129.8 16.4L 124.1 16.3Z" stroke-dasharray="none" class="fillAsStrokeColor-mk-8ye84j1nqchla" fill="#000000"></path></g></g></g><g id="g-root-cp_1_g-1_1ut14mb1lsp5hc-stroke" data-item-order="-522123" transform="translate(206, 249.30859375)"><g id="cp_1_g-1_1ut14mb1lsp5hc-stroke" fill="none" stroke-linecap="round" stroke-linejoin="round" stroke-miterlimit="4" stroke="#000000" stroke-width="1" stroke-opacity="1"><g><path d="M 82 259.4C 60.1115 246.7627 41.9347 228.5868 29.2962 206.699C 16.6577 184.8111 10.0027 159.9823 10.000001 134.7076C 9.9973 109.433 16.647 84.6028 29.2809 62.7122C 41.9147 40.8217 60.0877 22.642 81.9735 10L 117.9867 72.3462C 107.0438 78.6672 97.9574 87.757 91.6404 98.7023C 85.3235 109.6476 81.9987 122.0627 82 134.7C 82.0013 147.3373 85.3288 159.7517 91.6481 170.6957C 97.9673 181.6396 107.0557 190.7275 118 197.0462L 82 259.4Z"></path></g></g></g><g id="g-root-cp_3_g-3_1lxe4df1lsp6a1-stroke" data-item-order="-522119" transform="translate(422, 374.015625)"><g id="cp_3_g-3_1lxe4df1lsp6a1-stroke" fill="none" stroke-linecap="round" stroke-linejoin="round" stroke-miterlimit="4" stroke="#000000" stroke-width="1" stroke-opacity="1"><g><path d="M 226 134.6924C 204.1115 147.3297 179.2823 153.9834 154.0076 153.9847C 128.733 153.986 103.9031 147.335 82.0133 134.7C 60.1234 122.065 41.9447 103.8911 29.3038 82.0046C 16.663 60.1181 10.0054 35.29 10 10.0153L 82 10C 82.0027 22.6373 85.3315 35.0514 91.6519 45.9946C 97.9723 56.9379 107.0617 66.0248 118.0066 72.3424C 128.9516 78.6599 141.3665 81.9854 154.0038 81.9847C 166.6412 81.984 179.0557 78.6572 190 72.3385L 226 134.6924Z"></path></g></g></g><g id="g-root-cp_6_g-6_1lxe4df1lsp6a2-stroke" data-item-order="-522115" transform="translate(278.0249938964844, 374)"><g id="cp_6_g-6_1lxe4df1lsp6a2-stroke" fill="none" stroke-linecap="round" stroke-linejoin="round" stroke-miterlimit="4" stroke="#000000" stroke-width="1" stroke-opacity="1"><g><path d="M 153.9738 10C 153.9684 22.6267 150.6425 35.0611 144.3296 45.9967C 138.0115 56.9413 128.924 66.0302 117.9804 72.3501C 107.0368 78.6699 94.6225 81.998 81.9852 82C 69.3478 82.002 56.9325 78.6778 45.9869 72.3614L 10 134.7228C 31.8912 147.3555 56.7218 154.004 81.9965 154C 107.2712 153.996 132.0997 147.3398 153.9869 134.7001C 167.5539 126.8653 179.6944 116.9027 189.9737 105.2472C 183.6765 98.1069 178.0778 90.3312 173.2777 82.0202C 160.6368 60.1337 153.9792 35.2747 153.9738 10Z"></path></g></g></g><g id="g-root-cp_4_g-4_1lxe4df1lsp6a3-stroke" data-item-order="-522111" transform="translate(602, 249.29296875)"><g id="cp_4_g-4_1lxe4df1lsp6a3-stroke" fill="none" stroke-linecap="round" stroke-linejoin="round" stroke-miterlimit="4" stroke="#000000" stroke-width="1" stroke-opacity="1"><g><path d="M 46 10C 67.8885 22.6374 86.0654 40.8132 98.7039 62.7011C 111.3424 84.589 117.9974 109.4179 118 134.6926C 118.0027 159.9673 111.3529 184.7975 98.719 206.6881C 86.085 228.5786 67.912 246.7583 46.0261 259.4003L 10.0131 197.054C 20.956 190.733 30.0425 181.6431 36.3595 170.6979C 42.6764 159.7526 46.0013 147.3375 46 134.7001C 45.9987 122.0628 42.6712 109.6483 36.3519 98.7044C 30.0327 87.7605 20.9443 78.6725 10 72.3538L 46 10Z"></path></g></g></g><g id="g-root-cp_2_g-2_1hi73c31lsp3wk-stroke" data-item-order="-522107" transform="translate(277.5429992675781, 230)"><g id="cp_2_g-2_1hi73c31lsp3wk-stroke" fill="none" stroke-linecap="round" stroke-linejoin="round" stroke-miterlimit="4" stroke="#000000" stroke-width="1" stroke-opacity="1"><g><path d="M 10 29.5573C 31.8421 16.8397 56.6467 10.095 81.9212 10.001C 107.1957 9.907 132.0499 16.4669 153.9859 29.0216C 175.922 41.5763 194.1673 59.6835 206.8882 81.5235C 219.6092 103.3636 226.3578 128.1671 226.4558 153.4417L 154.4564 153.7208C 154.4074 141.0836 151.0331 128.6818 144.6726 117.7618C 138.3121 106.8417 129.1894 97.7881 118.2214 91.5108C 107.2534 85.2335 94.8263 81.9535 82.1891 82.0005C 69.5518 82.0475 57.1495 85.4198 46.2285 91.7786L 10 29.5573Z"></path></g></g></g><g id="g-root-cp_5_g-5_1hi73c31lsp3wl-stroke" data-item-order="-522103" transform="translate(458, 230)"><g id="cp_5_g-5_1hi73c31lsp3wl-stroke" fill="none" stroke-linecap="round" stroke-linejoin="round" stroke-miterlimit="4" stroke="#000000" stroke-width="1" stroke-opacity="1"><g><path d="M 10 58.7529C 22.4196 72.8356 32.0271 89.2822 38.1872 107.2129C 43.3843 122.3406 45.9965 138.1431 46 153.969C 46.0054 141.3423 49.3313 128.9389 55.6443 118.0033C 61.9624 107.0587 71.0498 97.9698 81.9934 91.6499C 92.937 85.3301 105.3513 82.002 117.9886 82C 130.626 81.998 143.0413 85.3222 153.9869 91.6386L 189.9738 29.2772C 168.0826 16.6445 143.252 9.996 117.9773 10C 92.7026 10.004 67.8741 16.6602 45.9869 29.2999C 32.4199 37.1347 20.2793 47.0974 10 58.7529Z"></path></g></g></g><g id="g-root-tx_profitsa_1um5wo31lsql8m-stroke" data-item-order="0" transform="translate(506, 134)"></g><g id="g-root-tx_theplatf_13ymeub1lsqj2g-stroke" data-item-order="0" transform="translate(248, 134)"></g><g id="g-root-tx_2_mg31k31lsp4ow-stroke" data-item-order="0" transform="translate(368, 260)"></g><g id="g-root-tx_5_9m00z1lsp3wr-stroke" data-item-order="0" transform="translate(542, 260)"></g><g id="g-root-tx_sharekno_1lz9jmr1lsp5al-stroke" data-item-order="0" transform="translate(14, 326)"></g><g id="g-root-tx_earnreve_dcbv6r1lsqj2j-stroke" data-item-order="0" transform="translate(734, 338)"></g><g id="g-root-tx_1_qvwjoj1lsp3wn-stroke" data-item-order="0" transform="translate(230, 362)"></g><g id="g-root-tx_investfu_vctf1lsqknh-stroke" data-item-order="0" transform="translate(518, 98)"></g><g id="g-root-tx_growplat_18nt19f1lsp6vj-stroke" data-item-order="0" transform="translate(266, 98)"></g><g id="g-root-tx_communit_146qkyr1lsp5hi-stroke" data-item-order="0" transform="translate(284, 38)"></g><g id="g-root-tx_4_94mj6r1lsp69u-stroke" data-item-order="0" transform="translate(662, 362)"></g><g id="g-root-tx_communit_1hjg1ib1lsp62u-stroke" data-item-order="0" transform="translate(26, 362)"></g><g id="g-root-tx_revenuei_8wid2b1lsqjus-stroke" data-item-order="0" transform="translate(734, 374)"></g><g id="g-root-tx_6_1uuwjvn1lsp4hw-stroke" data-item-order="0" transform="translate(362, 464)"></g><g id="g-root-tx_3_dkg1b71lsp5hl-stroke" data-item-order="0" transform="translate(494, 452)"></g><g id="g-root-tx_practiti_qn5wgz1lsqkne-stroke" data-item-order="0" transform="translate(476, 578)"></g><g id="g-root-tx_useplatf_ziswpv1lsqjup-stroke" data-item-order="0" transform="translate(512, 542)"></g><g id="g-root-tx_morecomm_1hbbvdv1lsqjns-stroke" data-item-order="0" transform="translate(248, 578)"></g><g id="g-root-tx_expandne_1lr5dib1lsqivj-stroke" data-item-order="0" transform="translate(260, 542)"></g></g></g></svg>