<?xml version="1.0" encoding="utf-8" standalone="yes"?>
<!DOCTYPE svg PUBLIC "-//W3C//DTD SVG 1.1//EN" "http://www.w3.org/Graphics/SVG/1.1/DTD/svg11.dtd">
<svg style="fill:none;stroke:none;fill-rule:evenodd;clip-rule:evenodd;stroke-linecap:round;stroke-linejoin:round;stroke-miterlimit:1.5;" version="1.1" xmlns="http://www.w3.org/2000/svg" xmlns:xlink="http://www.w3.org/1999/xlink" width="876" height="450" viewBox="0 0 876 450"><style class="text-font-style fontImports" data-font-family="Roboto">@import url(https://fonts.googleapis.com/css2?family=Roboto:wght@400;700&amp;amp;display=block);</style><g id="items" style="isolation: isolate"><g id="blend" style="mix-blend-mode: normal"><g id="g-root-cp_0-0_g-0-0_1lpwfbj1cwlato-fill" data-item-order="-293099" transform="translate(26, 110)"></g><g id="g-root-cp_0-1_g-0-1_1ha2x731cwlblx-fill" data-item-order="-293067" transform="translate(26, 266)"></g><g id="g-root-cp_0-2_g-0-2_18f2e1b1cwl98u-fill" data-item-order="-293031" transform="translate(26, 326)"></g><g id="g-root-cp_1-0_g-1-0_18f2e1b1cwl98v-fill" data-item-order="-292991" transform="translate(278, 110)"></g><g id="g-root-cp_1-1_g-1-1_13z8vwv1cwla14-fill" data-item-order="-292963" transform="translate(278, 266)"></g><g id="g-root-cp_1-2_g-1-2_13z8vwv1cwla15-fill" data-item-order="-292945" transform="translate(278, 326)"></g><g id="g-root-cp_2-0_g-2-0_zjfdsf1cwlate-fill" data-item-order="-292925" transform="translate(458, 110)"></g><g id="g-root-cp_2-1_g-2-1_zjfdsf1cwlatf-fill" data-item-order="-292897" transform="translate(458, 266)"></g><g id="g-root-cp_2-2_g-2-2_qnsdjj1cwlbm4-fill" data-item-order="-292879" transform="translate(458, 326)"></g><g id="g-root-cp_3-0_g-3-0_qnsdjj1cwlbm5-fill" data-item-order="-292859" transform="translate(614, 110)"></g><g id="g-root-cp_3-1_g-3-1_m8lci71cwl98m-fill" data-item-order="-292829" transform="translate(614, 266)"></g><g id="g-root-cp_3-2_g-3-2_m8lci71cwl98n-fill" data-item-order="-292811" transform="translate(614, 326)"></g><g id="g-root-tx_overrepr_143m7in1cwo45n-fill" data-item-order="0" transform="translate(626, 170)"><g id="tx_overrepr_143m7in1cwo45n-fill-merged" stroke="none" fill="#ffffff" fill-opacity="1"><g><text style="font: bold 20px Roboto, sans-serif; white-space: pre;" transform="translate(106, 34)" font-weight="bold" font-size="20px" font-family="Roboto, sans-serif"><tspan x="-88.09" y="-0.5" dominant-baseline="ideographic">Overrepresentation </tspan><tspan x="-24.85" y="23.5" dominant-baseline="ideographic">Ratio</tspan></text></g></g></g><g id="g-root-tx_detentio_1cy09lb1cwmnt2-fill" data-item-order="0" transform="translate(470, 170)"><g id="tx_detentio_1cy09lb1cwmnt2-fill-merged" stroke="none" fill="#ffffff" fill-opacity="1"><g><text style="font: bold 20px Roboto, sans-serif; white-space: pre;" transform="translate(70, 46)" font-weight="bold" font-size="20px" font-family="Roboto, sans-serif"><tspan x="-43.58" y="-12.5" dominant-baseline="ideographic">Detention </tspan><tspan x="-48.55" y="11.5" dominant-baseline="ideographic">Population </tspan><tspan x="-57.2" y="35.5" dominant-baseline="ideographic">Composition</tspan></text></g></g></g><g id="g-root-tx_indigeno_8x4u4v1cwlatm-fill" data-item-order="0" transform="translate(38, 278)"><g id="tx_indigeno_8x4u4v1cwlatm-fill-merged" stroke="none" fill="#ffffff" fill-opacity="1"><g><text style="font: bold 20px Roboto, sans-serif; white-space: pre;" transform="translate(10, 22)" font-weight="bold" font-size="20px" font-family="Roboto, sans-serif"><tspan x="2" y="11.5" dominant-baseline="ideographic">Indigenous Youth</tspan></text></g></g></g><g id="g-root-tx_detentio_hu0sjz1cwmpky-fill" data-item-order="0" transform="translate(290, 170)"><g id="tx_detentio_hu0sjz1cwmpky-fill-merged" stroke="none" fill="#ffffff" fill-opacity="1"><g><text style="font: bold 20px Roboto, sans-serif; white-space: pre;" transform="translate(82, 34)" font-weight="bold" font-size="20px" font-family="Roboto, sans-serif"><tspan x="-68.3" y="-0.5" dominant-baseline="ideographic">Detention Rate </tspan><tspan x="-57.04" y="23.5" dominant-baseline="ideographic">(per 10,000)</tspan></text></g></g></g><g id="g-root-tx_342_8ydsb31cwmqdn-fill" data-item-order="0" transform="translate(344, 278)"><g id="tx_342_8ydsb31cwmqdn-fill-merged" stroke="none" fill="#ffffff" fill-opacity="1"><g><text style="font: 15px Roboto, sans-serif; white-space: pre;" transform="translate(28, 22)" font-size="15px" font-family="Roboto, sans-serif"><tspan x="-14.63" y="8.5" dominant-baseline="ideographic">34.2</tspan></text></g></g></g><g id="g-root-tx_characte_8x4u4v1cwlatl-fill" data-item-order="0" transform="translate(38, 170)"><g id="tx_characte_8x4u4v1cwlatl-fill-merged" stroke="none" fill="#ffffff" fill-opacity="1"><g><text style="font: bold 20px Roboto, sans-serif; white-space: pre;" transform="translate(76, 22)" font-weight="bold" font-size="20px" font-family="Roboto, sans-serif"><tspan x="-63.04" y="11.5" dominant-baseline="ideographic">Characteristic</tspan></text></g></g></g><g id="g-root-tx_54_142d9cf1cwmolr-fill" data-item-order="0" transform="translate(512, 278)"><g id="tx_54_142d9cf1cwmolr-fill-merged" stroke="none" fill="#ffffff" fill-opacity="1"><g><text style="font: 15px Roboto, sans-serif; white-space: pre;" transform="translate(28, 22)" font-size="15px" font-family="Roboto, sans-serif"><tspan x="-13.93" y="8.5" dominant-baseline="ideographic">54%</tspan></text></g></g></g><g id="g-root-ic_2_v6q93j1cwmq69-fill" data-item-order="0" transform="translate(704, 122)"></g><g id="g-root-tx_171_qss68f1cwo2ks-fill" data-item-order="0" transform="translate(704, 278)"><g id="tx_171_qss68f1cwo2ks-fill-merged" stroke="none" fill="#ffffff" fill-opacity="1"><g><text style="font: 15px Roboto, sans-serif; white-space: pre;" transform="translate(28, 22)" font-size="15px" font-family="Roboto, sans-serif"><tspan x="-14.46" y="8.5" dominant-baseline="ideographic">17:1</tspan></text></g></g></g><g id="g-root-ic_inma_1uonszz1cwmolp-fill" data-item-order="0" transform="translate(512, 122)"></g><g id="g-root-tx_nonindig_4hbc0f1cwlblv-fill" data-item-order="0" transform="translate(38, 338)"><g id="tx_nonindig_4hbc0f1cwlblv-fill-merged" stroke="none" fill="#ffffff" fill-opacity="1"><g><text style="font: bold 20px Roboto, sans-serif; white-space: pre;" transform="translate(10, 22)" font-weight="bold" font-size="20px" font-family="Roboto, sans-serif"><tspan x="2" y="11.5" dominant-baseline="ideographic">Non-Indigenous Youth</tspan></text></g></g></g><g id="g-root-ic_bars_1hbycgf1cwlamk-fill" data-item-order="0" transform="translate(344, 122)"></g><g id="g-root-tx_20_4j6r9r1cwmo04-fill" data-item-order="0" transform="translate(344, 338)"><g id="tx_20_4j6r9r1cwmo04-fill-merged" stroke="none" fill="#ffffff" fill-opacity="1"><g><text style="font: 15px Roboto, sans-serif; white-space: pre;" transform="translate(28, 22)" font-size="15px" font-family="Roboto, sans-serif"><tspan x="-10.41" y="8.5" dominant-baseline="ideographic">2.0</tspan></text></g></g></g><g id="g-root-tx_indigeno_m8lci71cwl98o-fill" data-item-order="0" transform="translate(170, 38)"><g id="tx_indigeno_m8lci71cwl98o-fill-merged" stroke="none" fill="#ffffff" fill-opacity="1"><g><text style="font: bold 25px Roboto, sans-serif; white-space: pre;" transform="translate(268, 28)" font-weight="bold" font-size="25px" font-family="Roboto, sans-serif"><tspan x="-255.25" y="14.5" dominant-baseline="ideographic">Indigenous vs. Non-Indigenous Youth Justice</tspan></text></g></g></g><g id="g-root-tx_46_zmjr7z1cwmpe0-fill" data-item-order="0" transform="translate(512, 338)"><g id="tx_46_zmjr7z1cwmpe0-fill-merged" stroke="none" fill="#ffffff" fill-opacity="1"><g><text style="font: 15px Roboto, sans-serif; white-space: pre;" transform="translate(28, 22)" font-size="15px" font-family="Roboto, sans-serif"><tspan x="-13.93" y="8.5" dominant-baseline="ideographic">46%</tspan></text></g></g></g><g id="g-root-tx_117_mcyo3z1cwo3d1-fill" data-item-order="0" transform="translate(704, 338)"><g id="tx_117_mcyo3z1cwo3d1-fill-merged" stroke="none" fill="#ffffff" fill-opacity="1"><g><text style="font: 15px Roboto, sans-serif; white-space: pre;" transform="translate(28, 22)" font-size="15px" font-family="Roboto, sans-serif"><tspan x="-14.46" y="8.5" dominant-baseline="ideographic">1:17</tspan></text></g></g></g><g id="g-root-cp_0-0_g-0-0_1lpwfbj1cwlato-stroke" data-item-order="-293099" transform="translate(26, 110)"><g id="cp_0-0_g-0-0_1lpwfbj1cwlato-stroke" fill="none" stroke-linecap="round" stroke-linejoin="round" stroke-miterlimit="4" stroke="#ffffff" stroke-width="1" stroke-opacity="1"><g><path d="M 10 22L 10 16C 10 12.6863 12.6863 10 16 10L 22 10M 250 22L 250 142M 10 142L 10 22M 22 10L 238.000015 10M 10 142L 10 148C 10 151.3137 12.6863 154 16 154L 22 154M 250 22L 250 16C 250 12.6863 247.3137 10 244 10L 238 10M 238.000015 154L 22 154M 250 142L 250 148C 250 151.3137 247.3137 154 244 154L 238 154"></path></g></g></g><g id="g-root-cp_0-1_g-0-1_1ha2x731cwlblx-stroke" data-item-order="-293067" transform="translate(26, 266)"><g id="cp_0-1_g-0-1_1ha2x731cwlblx-stroke" fill="none" stroke-linecap="round" stroke-linejoin="round" stroke-miterlimit="4" stroke="#ffffff" stroke-width="1" stroke-opacity="1"><g><path d="M 10 22L 10 16C 10 12.6863 12.6863 10 16 10L 22 10M 250 22L 250 46M 10 46L 10 22M 22 10L 238.000015 10M 10 46L 10 52C 10 55.3137 12.6863 58 16 58L 22 58M 250 22L 250 16C 250 12.6863 247.3137 10 244 10L 238 10M 238.000015 58L 22 58M 250 46L 250 52C 250 55.3137 247.3137 58 244 58L 238 58"></path></g></g></g><g id="g-root-cp_0-2_g-0-2_18f2e1b1cwl98u-stroke" data-item-order="-293031" transform="translate(26, 326)"><g id="cp_0-2_g-0-2_18f2e1b1cwl98u-stroke" fill="none" stroke-linecap="round" stroke-linejoin="round" stroke-miterlimit="4" stroke="#ffffff" stroke-width="1" stroke-opacity="1"><g><path d="M 10 22L 10 16C 10 12.6863 12.6863 10 16 10L 22 10M 250 22L 250 46M 10 46L 10 22M 22 10L 238.000015 10M 10 46L 10 52C 10 55.3137 12.6863 58 16 58L 22 58M 250 22L 250 16C 250 12.6863 247.3137 10 244 10L 238 10M 238.000015 58L 22 58M 250 46L 250 52C 250 55.3137 247.3137 58 244 58L 238 58"></path></g></g></g><g id="g-root-cp_1-0_g-1-0_18f2e1b1cwl98v-stroke" data-item-order="-292991" transform="translate(278, 110)"></g><g id="g-root-cp_1-1_g-1-1_13z8vwv1cwla14-stroke" data-item-order="-292963" transform="translate(278, 266)"></g><g id="g-root-cp_1-2_g-1-2_13z8vwv1cwla15-stroke" data-item-order="-292945" transform="translate(278, 326)"></g><g id="g-root-cp_2-0_g-2-0_zjfdsf1cwlate-stroke" data-item-order="-292925" transform="translate(458, 110)"></g><g id="g-root-cp_2-1_g-2-1_zjfdsf1cwlatf-stroke" data-item-order="-292897" transform="translate(458, 266)"></g><g id="g-root-cp_2-2_g-2-2_qnsdjj1cwlbm4-stroke" data-item-order="-292879" transform="translate(458, 326)"></g><g id="g-root-cp_3-0_g-3-0_qnsdjj1cwlbm5-stroke" data-item-order="-292859" transform="translate(614, 110)"></g><g id="g-root-cp_3-1_g-3-1_m8lci71cwl98m-stroke" data-item-order="-292829" transform="translate(614, 266)"></g><g id="g-root-cp_3-2_g-3-2_m8lci71cwl98n-stroke" data-item-order="-292811" transform="translate(614, 326)"></g><g id="g-root-tx_overrepr_143m7in1cwo45n-stroke" data-item-order="0" transform="translate(626, 170)"></g><g id="g-root-tx_detentio_1cy09lb1cwmnt2-stroke" data-item-order="0" transform="translate(470, 170)"></g><g id="g-root-tx_indigeno_8x4u4v1cwlatm-stroke" data-item-order="0" transform="translate(38, 278)"></g><g id="g-root-tx_detentio_hu0sjz1cwmpky-stroke" data-item-order="0" transform="translate(290, 170)"></g><g id="g-root-tx_342_8ydsb31cwmqdn-stroke" data-item-order="0" transform="translate(344, 278)"></g><g id="g-root-tx_characte_8x4u4v1cwlatl-stroke" data-item-order="0" transform="translate(38, 170)"></g><g id="g-root-tx_54_142d9cf1cwmolr-stroke" data-item-order="0" transform="translate(512, 278)"></g><g id="g-root-ic_2_v6q93j1cwmq69-stroke" data-item-order="0" transform="translate(704, 122)"><g id="ic_2_v6q93j1cwmq69-stroke" fill="none" stroke-linecap="round" stroke-linejoin="round" stroke-miterlimit="4" stroke="#ffffff" stroke-width="1" stroke-opacity="1"><g><path d="M 10.75 28C 10.748129 33.929546 15.554453 38.737385 21.483999 38.737385C 27.413548 38.737385 32.219872 33.929546 32.217999 28C 32.219872 22.070454 27.413548 17.262611 21.483999 17.262611C 15.554453 17.262611 10.748129 22.070454 10.75 28M 23.782 28C 23.780128 33.929546 28.586452 38.737385 34.515999 38.737385C 40.445549 38.737385 45.251869 33.929546 45.25 28C 45.251869 22.070454 40.445549 17.262611 34.515999 17.262611C 28.586452 17.262611 23.780128 22.070454 23.782 28M 17.678499 38.037998L 37.904503 17.812M 11.041 30.493L 23.9755 17.5585M 31.877501 38.406998L 44.923 25.3615M 24.466 24.230501L 13.513 35.183498M 42.105999 20.41L 31.8925 30.623499"></path></g></g></g><g id="g-root-tx_171_qss68f1cwo2ks-stroke" data-item-order="0" transform="translate(704, 278)"></g><g id="g-root-ic_inma_1uonszz1cwmolp-stroke" data-item-order="0" transform="translate(512, 122)"><g id="ic_inma_1uonszz1cwmolp-stroke" fill="none" stroke-linecap="round" stroke-linejoin="round" stroke-miterlimit="4" stroke="#ffffff" stroke-width="1" stroke-opacity="1"><g><path d="M 45.25 45.25L 45.25 43.75C 45.248749 41.247398 43.694313 39.008411 41.349998 38.1325L 34.314999 35.77M 21.684999 35.77L 14.65 38.134003C 12.3062 39.00972 10.751876 41.247944 10.75 43.75L 10.75 45.25M 37 16.441C 31.242725 18.85458 24.757277 18.85458 19 16.441M 37 19.441C 31.242725 21.85458 24.757277 21.85458 19 19.441M 10 10M 25.75 24.251501L 24.25 24.251501M 10 10M 30.25 24.251501L 31.75 24.251501M 10 10M 10.75 43.751499L 45.25 43.751499M 10 10M 11.554 40.751499L 44.445999 40.751499M 10 10M 15.7825 37.751499L 40.217499 37.751499M 18.5875 25.858C 18.230068 27.740673 17.185379 29.423187 15.6565 30.578499C 15.441276 30.707153 15.304582 30.934853 15.292225 31.185295C 15.279869 31.435736 15.393485 31.675785 15.595 31.825001C 16.83996 32.795982 18.390152 33.291618 19.967501 33.223M 37.449997 25.771C 37.800484 27.686134 38.854523 29.400957 40.404999 30.578499C 40.620037 30.707418 40.756435 30.935265 40.76849 31.185698C 40.780544 31.436131 40.66666 31.676022 40.465 31.825001C 39.220165 32.796219 37.669884 33.291885 36.092499 33.223M 26.7265 30.25C 27.077597 30.127935 27.446793 30.066065 27.818501 30.067001L 28.243 30.067001C 28.61471 30.066065 28.983906 30.127935 29.335001 30.250002M 37 22.766499L 37 14.6665C 37.000736 13.355726 36.150398 12.196232 34.900002 11.803C 30.410538 10.410236 25.604462 10.410236 21.115 11.803C 19.860249 12.190387 19.003281 13.348814 19 14.662L 19 22.762001C 17.730999 23.445999 18.142 26.349998 19.75 27.078999C 20.204422 27.285944 20.526075 27.705444 20.608 28.198C 21.269501 32.171501 25.921001 34.75 28 34.75L 28 34.75C 30.0805 34.75 34.732002 32.167 35.393501 28.201C 35.475426 27.708443 35.797081 27.288944 36.251499 27.081999C 37.856499 26.349998 38.267498 23.453499 37 22.766499Z"></path></g></g></g><g id="g-root-tx_nonindig_4hbc0f1cwlblv-stroke" data-item-order="0" transform="translate(38, 338)"></g><g id="g-root-ic_bars_1hbycgf1cwlamk-stroke" data-item-order="0" transform="translate(344, 122)"><g id="ic_bars_1hbycgf1cwlamk-stroke" fill="none" stroke-linecap="round" stroke-linejoin="round" stroke-miterlimit="4" stroke="#ffffff" stroke-width="1" stroke-opacity="1"><g><path d="M 24.625 17.125C 24.625 18.98896 26.13604 20.5 28 20.5C 29.86396 20.5 31.375 18.98896 31.375 17.125C 31.375 15.261039 29.86396 13.75 28 13.75C 26.13604 13.75 24.625 15.261039 24.625 17.125M 32.5 30.25L 31 30.25C 30.171572 30.25 29.5 30.921572 29.5 31.75L 29.5 31.75C 29.5 32.578426 30.171572 33.25 31 33.25L 32.5 33.25C 34.156857 33.25 35.5 31.906855 35.5 30.25C 35.5 26.107864 32.142136 22.75 28 22.75C 23.857864 22.75 20.5 26.107864 20.5 30.25C 20.5 31.906855 21.843145 33.25 23.5 33.25L 25 33.25C 25.828428 33.25 26.5 32.578426 26.5 31.75L 26.5 31.75C 26.5 30.921572 25.828428 30.25 25 30.25L 23.5 30.25M 31.75 45.25L 31.75 33.25M 24.25 33.25L 24.25 45.25M 24.25 27.25L 24.25 10.75M 31.75 27.25L 31.75 10.75M 17.5 10.75L 17.5 45.25M 38.5 10.75L 38.5 45.25M 12.25 10.75L 43.75 10.75C 43.75 10.75 45.25 10.75 45.25 12.25L 45.25 43.75C 45.25 43.75 45.25 45.25 43.75 45.25L 12.25 45.25C 12.25 45.25 10.75 45.25 10.75 43.75L 10.75 12.25C 10.75 12.25 10.75 10.75 12.25 10.75M 28 37L 28 45.25"></path></g></g></g><g id="g-root-tx_20_4j6r9r1cwmo04-stroke" data-item-order="0" transform="translate(344, 338)"></g><g id="g-root-tx_indigeno_m8lci71cwl98o-stroke" data-item-order="0" transform="translate(170, 38)"></g><g id="g-root-tx_46_zmjr7z1cwmpe0-stroke" data-item-order="0" transform="translate(512, 338)"></g><g id="g-root-tx_117_mcyo3z1cwo3d1-stroke" data-item-order="0" transform="translate(704, 338)"></g></g></g></svg>