<?xml version="1.0" encoding="utf-8" standalone="yes"?>
<!DOCTYPE svg PUBLIC "-//W3C//DTD SVG 1.1//EN" "http://www.w3.org/Graphics/SVG/1.1/DTD/svg11.dtd">
<svg style="fill:none;stroke:none;fill-rule:evenodd;clip-rule:evenodd;stroke-linecap:round;stroke-linejoin:round;stroke-miterlimit:1.5;" version="1.1" xmlns="http://www.w3.org/2000/svg" xmlns:xlink="http://www.w3.org/1999/xlink" width="1188" height="561" viewBox="0 0 1188 561"><style class="text-font-style fontImports" data-font-family="Roboto">@import url(https://fonts.googleapis.com/css2?family=Roboto:wght@400;700&amp;amp;display=block);</style><g id="items" style="isolation: isolate"><g id="blend" style="mix-blend-mode: normal"><g id="g-root-cp_1_g-1_13z8vy71feq2va-fill" data-item-order="-529401" transform="translate(8, 161.60009765625)"></g><g id="g-root-cp_2_g-2_v3lvpb1feq3nz-fill" data-item-order="-529377" transform="translate(200, 140)"></g><g id="g-root-cp_3_g-3_qoeunz1feq1ag-fill" data-item-order="-529353" transform="translate(392, 192.2001953125)"></g><g id="g-root-cp_4_g-4_qoeunz1feq1ah-fill" data-item-order="-529329" transform="translate(584, 194)"></g><g id="g-root-cp_5_g-5_m8lcjj1feq22q-fill" data-item-order="-529305" transform="translate(680, 188.60009765625)"></g><g id="g-root-cp_6_g-6_dcycan1feq2vf-fill" data-item-order="-529281" transform="translate(776, 192.2001953125)"></g><g id="g-root-tx_26_1uneuv31feq1vp-fill" data-item-order="0" transform="translate(326, 119.60009765625)"><g id="tx_26_1uneuv31feq1vp-fill-merged" stroke="none" fill="#ffffff" fill-opacity="1"><g><text style="font: bold 15px Roboto, sans-serif; white-space: pre;" transform="translate(28, 22)" font-weight="bold" font-size="15px" font-family="Roboto, sans-serif"><tspan x="-14.16" y="8.5" dominant-baseline="ideographic">26%</tspan></text></g></g></g><g id="g-root-tx_38_1lrrum71feq2oe-fill" data-item-order="0" transform="translate(422, 98)"><g id="tx_38_1lrrum71feq2oe-fill-merged" stroke="none" fill="#ffffff" fill-opacity="1"><g><text style="font: bold 15px Roboto, sans-serif; white-space: pre;" transform="translate(28, 22)" font-weight="bold" font-size="15px" font-family="Roboto, sans-serif"><tspan x="-14.16" y="8.5" dominant-baseline="ideographic">38%</tspan></text></g></g></g><g id="g-root-tx_9_1hbychr1feq3gn-fill" data-item-order="0" transform="translate(524, 150.2001953125)"><g id="tx_9_1hbychr1feq3gn-fill-merged" stroke="none" fill="#ffffff" fill-opacity="1"><g><text style="font: bold 15px Roboto, sans-serif; white-space: pre;" transform="translate(22, 22)" font-weight="bold" font-size="15px" font-family="Roboto, sans-serif"><tspan x="-9.85" y="8.5" dominant-baseline="ideographic">9%</tspan></text></g></g></g><g id="g-root-tx_8_1cwrbgf1feq134-fill" data-item-order="0" transform="translate(620, 152)"><g id="tx_8_1cwrbgf1feq134-fill-merged" stroke="none" fill="#ffffff" fill-opacity="1"><g><text style="font: bold 15px Roboto, sans-serif; white-space: pre;" transform="translate(22, 22)" font-weight="bold" font-size="15px" font-family="Roboto, sans-serif"><tspan x="-9.85" y="8.5" dominant-baseline="ideographic">8%</tspan></text></g></g></g><g id="g-root-tx_11_1414b7j1feq1vt-fill" data-item-order="0" transform="translate(710, 146.60009765625)"><g id="tx_11_1414b7j1feq1vt-fill-merged" stroke="none" fill="#ffffff" fill-opacity="1"><g><text style="font: bold 15px Roboto, sans-serif; white-space: pre;" transform="translate(28, 22)" font-weight="bold" font-size="15px" font-family="Roboto, sans-serif"><tspan x="-14.16" y="8.5" dominant-baseline="ideographic">11%</tspan></text></g></g></g><g id="g-root-tx_9_zlat331feq2o2-fill" data-item-order="0" transform="translate(812, 150.2001953125)"><g id="tx_9_zlat331feq2o2-fill-merged" stroke="none" fill="#ffffff" fill-opacity="1"><g><text style="font: bold 15px Roboto, sans-serif; white-space: pre;" transform="translate(22, 22)" font-weight="bold" font-size="15px" font-family="Roboto, sans-serif"><tspan x="-9.85" y="8.5" dominant-baseline="ideographic">9%</tspan></text></g></g></g><g id="g-root-tx_threeyea_dcycan1feq2vg-fill" data-item-order="0" transform="translate(404, 38)"><g id="tx_threeyea_dcycan1feq2vg-fill-merged" stroke="none" fill="#ffffff" fill-opacity="1"><g><text style="font: bold 25px Roboto, sans-serif; white-space: pre;" transform="translate(190, 28)" font-weight="bold" font-size="25px" font-family="Roboto, sans-serif"><tspan x="-174.96" y="14.5" dominant-baseline="ideographic">Three-Year Budget Distribution</tspan></text></g></g></g><g id="g-root-tx_administ_1cy09mn1feq39i-fill" data-item-order="0" transform="translate(962, 418.39990234375)"><g id="tx_administ_1cy09mn1feq39i-fill-merged" stroke="none" fill="#ffffff" fill-opacity="1"><g><text style="font: 20px Roboto, sans-serif; white-space: pre;" transform="translate(94, 46)" font-size="20px" font-family="Roboto, sans-serif"><tspan x="-66.14" y="-12.5" dominant-baseline="ideographic">Administrative, </tspan><tspan x="-64.37" y="11.5" dominant-baseline="ideographic">insurance, and </tspan><tspan x="-81.89" y="35.5" dominant-baseline="ideographic">contingency funds</tspan></text></g></g></g><g id="g-root-tx_communit_qpnsu71feq3gr-fill" data-item-order="0" transform="translate(74, 382.39990234375)"><g id="tx_communit_qpnsu71feq3gr-fill-merged" stroke="none" fill="#ffffff" fill-opacity="1"><g><text style="font: bold 15px Roboto, sans-serif; white-space: pre;" transform="translate(58, 22)" font-weight="bold" font-size="15px" font-family="Roboto, sans-serif"><tspan x="-44.96" y="8.5" dominant-baseline="ideographic">Communities</tspan></text></g></g></g><g id="g-root-tx_staff_magrsv1feq139-fill" data-item-order="0" transform="translate(278, 382.39990234375)"><g id="tx_staff_magrsv1feq139-fill-merged" stroke="none" fill="#ffffff" fill-opacity="1"><g><text style="font: bold 15px Roboto, sans-serif; white-space: pre;" transform="translate(34, 22)" font-weight="bold" font-size="15px" font-family="Roboto, sans-serif"><tspan x="-16.54" y="8.5" dominant-baseline="ideographic">Staff</tspan></text></g></g></g><g id="g-root-tx_platform_8z09fj1feq2o7-fill" data-item-order="0" transform="translate(446, 382.39990234375)"><g id="tx_platform_8z09fj1feq2o7-fill-merged" stroke="none" fill="#ffffff" fill-opacity="1"><g><text style="font: bold 15px Roboto, sans-serif; white-space: pre;" transform="translate(46, 22)" font-weight="bold" font-size="15px" font-family="Roboto, sans-serif"><tspan x="-29.54" y="8.5" dominant-baseline="ideographic">Platform</tspan></text></g></g></g><g id="g-root-tx_training_1upaa4f1feq0w9-fill" data-item-order="0" transform="translate(638, 382.39990234375)"><g id="tx_training_1upaa4f1feq0w9-fill-merged" stroke="none" fill="#ffffff" fill-opacity="1"><g><text style="font: bold 15px Roboto, sans-serif; white-space: pre;" transform="translate(40, 22)" font-weight="bold" font-size="15px" font-family="Roboto, sans-serif"><tspan x="-27.7" y="8.5" dominant-baseline="ideographic">Training</tspan></text></g></g></g><g id="g-root-tx_operatio_1q9grzz1feq1oj-fill" data-item-order="0" transform="translate(812, 382.39990234375)"><g id="tx_operatio_1q9grzz1feq1oj-fill-merged" stroke="none" fill="#ffffff" fill-opacity="1"><g><text style="font: bold 15px Roboto, sans-serif; white-space: pre;" transform="translate(52, 22)" font-weight="bold" font-size="15px" font-family="Roboto, sans-serif"><tspan x="-36.9" y="8.5" dominant-baseline="ideographic">Operations</tspan></text></g></g></g><g id="g-root-tx_overhead_1cy09mn1feq39h-fill" data-item-order="0" transform="translate(1010, 382.39990234375)"><g id="tx_overhead_1cy09mn1feq39h-fill-merged" stroke="none" fill="#ffffff" fill-opacity="1"><g><text style="font: bold 15px Roboto, sans-serif; white-space: pre;" transform="translate(46, 22)" font-weight="bold" font-size="15px" font-family="Roboto, sans-serif"><tspan x="-32.21" y="8.5" dominant-baseline="ideographic">Overhead</tspan></text></g></g></g><g id="g-root-tx_directco_qpnsu71feq3gs-fill" data-item-order="0" transform="translate(38, 418.39990234375)"><g id="tx_directco_qpnsu71feq3gs-fill-merged" stroke="none" fill="#ffffff" fill-opacity="1"><g><text style="font: 20px Roboto, sans-serif; white-space: pre;" transform="translate(94, 46)" font-size="20px" font-family="Roboto, sans-serif"><tspan x="-28.58" y="-12.5" dominant-baseline="ideographic">Direct </tspan><tspan x="-77.52" y="11.5" dominant-baseline="ideographic">compensation to </tspan><tspan x="-60.59" y="35.5" dominant-baseline="ideographic">communities</tspan></text></g></g></g><g id="g-root-tx_salaries_detrjz1feq1vy-fill" data-item-order="0" transform="translate(230, 418.39990234375)"><g id="tx_salaries_detrjz1feq1vy-fill-merged" stroke="none" fill="#ffffff" fill-opacity="1"><g><text style="font: 20px Roboto, sans-serif; white-space: pre;" transform="translate(82, 34)" font-size="20px" font-family="Roboto, sans-serif"><tspan x="-66.79" y="-0.5" dominant-baseline="ideographic">Salaries for 12 </tspan><tspan x="-45.02" y="23.5" dominant-baseline="ideographic">FTE team</tspan></text></g></g></g><g id="g-root-tx_developm_4j6rb31feq3gg-fill" data-item-order="0" transform="translate(398, 418.39990234375)"><g id="tx_developm_4j6rb31feq3gg-fill-merged" stroke="none" fill="#ffffff" fill-opacity="1"><g><text style="font: 20px Roboto, sans-serif; white-space: pre;" transform="translate(94, 46)" font-size="20px" font-family="Roboto, sans-serif"><tspan x="-79.79" y="-12.5" dominant-baseline="ideographic">Development and </tspan><tspan x="-59.97" y="11.5" dominant-baseline="ideographic">maintenance </tspan><tspan x="-26.74" y="35.5" dominant-baseline="ideographic">costs</tspan></text></g></g></g><g id="g-root-tx_expenses_1upaa4f1feq0wa-fill" data-item-order="0" transform="translate(590, 418.39990234375)"><g id="tx_expenses_1upaa4f1feq0wa-fill-merged" stroke="none" fill="#ffffff" fill-opacity="1"><g><text style="font: 20px Roboto, sans-serif; white-space: pre;" transform="translate(88, 46)" font-size="20px" font-family="Roboto, sans-serif"><tspan x="-74.25" y="-12.5" dominant-baseline="ideographic">Expenses for 15-</tspan><tspan x="-62.85" y="11.5" dominant-baseline="ideographic">20 Indigenous </tspan><tspan x="-35.62" y="35.5" dominant-baseline="ideographic">trainees</tspan></text></g></g></g><g id="g-root-tx_officeeq_1hdtrr31feq2h8-fill" data-item-order="0" transform="translate(770, 418.39990234375)"><g id="tx_officeeq_1hdtrr31feq2h8-fill-merged" stroke="none" fill="#ffffff" fill-opacity="1"><g><text style="font: 20px Roboto, sans-serif; white-space: pre;" transform="translate(94, 34)" font-size="20px" font-family="Roboto, sans-serif"><tspan x="-81.14" y="-0.5" dominant-baseline="ideographic">Office, equipment, </tspan><tspan x="-71.57" y="23.5" dominant-baseline="ideographic">and event costs</tspan></text></g></g></g><g id="g-root-cp_1_g-1_13z8vy71feq2va-stroke" data-item-order="-529401" transform="translate(8, 161.60009765625)"><g id="cp_1_g-1_13z8vy71feq2va-stroke" fill="none" stroke-linecap="round" stroke-linejoin="round" stroke-miterlimit="4" stroke="#ffffff" stroke-width="1" stroke-opacity="1"><g><path d="M 394 28L 394 27L 346.0252 10L 298 27L 298 28M 393.999992 28L 393.999992 74.799805M 298 74.799805L 298 28M 10 194.799805L 298 146.799805L 394 146.799805L 202 194.799805L 10 194.799805ZM 298 146.799805L 298 74.799805M 394 74.799805L 394 146.799805"></path></g></g></g><g id="g-root-cp_2_g-2_v3lvpb1feq3nz-stroke" data-item-order="-529377" transform="translate(200, 140)"><g id="cp_2_g-2_v3lvpb1feq3nz-stroke" fill="none" stroke-linecap="round" stroke-linejoin="round" stroke-miterlimit="4" stroke="#ffffff" stroke-width="1" stroke-opacity="1"><g><path d="M 298 28L 298 27L 250.0252 10L 202 27L 202 28M 297.999985 28L 297.999985 96.399902M 202 96.399902L 202 28M 10 216.399902L 202 168.399902L 298 168.399902L 202 216.399902L 10 216.399902ZM 202 168.399902L 202 96.399902M 298 96.399902L 298 168.399902"></path></g></g></g><g id="g-root-cp_3_g-3_qoeunz1feq1ag-stroke" data-item-order="-529353" transform="translate(392, 192.2001953125)"><g id="cp_3_g-3_qoeunz1feq1ag-stroke" fill="none" stroke-linecap="round" stroke-linejoin="round" stroke-miterlimit="4" stroke="#ffffff" stroke-width="1" stroke-opacity="1"><g><path d="M 202 28L 202 27L 154.0252 10L 106 27L 106 28M 202 28L 202 44.200195M 106 44.200195L 106 28M 10 164.200195L 106 116.200195L 202 116.200195L 202 164.200195L 10 164.200195ZM 106 116.200195L 106 44.200195M 202 44.200195L 202 116.200195"></path></g></g></g><g id="g-root-cp_4_g-4_qoeunz1feq1ah-stroke" data-item-order="-529329" transform="translate(584, 194)"><g id="cp_4_g-4_qoeunz1feq1ah-stroke" fill="none" stroke-linecap="round" stroke-linejoin="round" stroke-miterlimit="4" stroke="#ffffff" stroke-width="1" stroke-opacity="1"><g><path d="M 106 28L 106 27L 58.0252 10L 10 27L 10 28M 106 28L 106 42.399902M 10 42.399902L 10 28M 10 162.399902L 10 114.399902L 106 114.399902L 202 162.399902L 10 162.399902ZM 10 114.399902L 10 42.399902M 106 42.399902L 106 114.399902"></path></g></g></g><g id="g-root-cp_5_g-5_m8lcjj1feq22q-stroke" data-item-order="-529305" transform="translate(680, 188.60009765625)"><g id="cp_5_g-5_m8lcjj1feq22q-stroke" fill="none" stroke-linecap="round" stroke-linejoin="round" stroke-miterlimit="4" stroke="#ffffff" stroke-width="1" stroke-opacity="1"><g><path d="M 106 28L 106 27L 58.0252 10L 10 27L 10 28M 106 28L 106 47.799805M 10 47.799805L 10 28M 106 167.799805L 10 119.799805L 106 119.799805L 298 167.799805L 106 167.799805ZM 10 119.799805L 10 47.799805M 106 47.799805L 106 119.799805"></path></g></g></g><g id="g-root-cp_6_g-6_dcycan1feq2vf-stroke" data-item-order="-529281" transform="translate(776, 192.2001953125)"><g id="cp_6_g-6_dcycan1feq2vf-stroke" fill="none" stroke-linecap="round" stroke-linejoin="round" stroke-miterlimit="4" stroke="#ffffff" stroke-width="1" stroke-opacity="1"><g><path d="M 106 28L 106 27L 58.0252 10L 10 27L 10 28M 106 28L 106 44.200195M 10 44.200195L 10 28M 202 164.200195L 10 116.200195L 106 116.200195L 394 164.200195L 202 164.200195ZM 10 116.200195L 10 44.200195M 106 44.200195L 106 116.200195"></path></g></g></g><g id="g-root-tx_26_1uneuv31feq1vp-stroke" data-item-order="0" transform="translate(326, 119.60009765625)"></g><g id="g-root-tx_38_1lrrum71feq2oe-stroke" data-item-order="0" transform="translate(422, 98)"></g><g id="g-root-tx_9_1hbychr1feq3gn-stroke" data-item-order="0" transform="translate(524, 150.2001953125)"></g><g id="g-root-tx_8_1cwrbgf1feq134-stroke" data-item-order="0" transform="translate(620, 152)"></g><g id="g-root-tx_11_1414b7j1feq1vt-stroke" data-item-order="0" transform="translate(710, 146.60009765625)"></g><g id="g-root-tx_9_zlat331feq2o2-stroke" data-item-order="0" transform="translate(812, 150.2001953125)"></g><g id="g-root-tx_threeyea_dcycan1feq2vg-stroke" data-item-order="0" transform="translate(404, 38)"></g><g id="g-root-tx_administ_1cy09mn1feq39i-stroke" data-item-order="0" transform="translate(962, 418.39990234375)"></g><g id="g-root-tx_communit_qpnsu71feq3gr-stroke" data-item-order="0" transform="translate(74, 382.39990234375)"></g><g id="g-root-tx_staff_magrsv1feq139-stroke" data-item-order="0" transform="translate(278, 382.39990234375)"></g><g id="g-root-tx_platform_8z09fj1feq2o7-stroke" data-item-order="0" transform="translate(446, 382.39990234375)"></g><g id="g-root-tx_training_1upaa4f1feq0w9-stroke" data-item-order="0" transform="translate(638, 382.39990234375)"></g><g id="g-root-tx_operatio_1q9grzz1feq1oj-stroke" data-item-order="0" transform="translate(812, 382.39990234375)"></g><g id="g-root-tx_overhead_1cy09mn1feq39h-stroke" data-item-order="0" transform="translate(1010, 382.39990234375)"></g><g id="g-root-tx_directco_qpnsu71feq3gs-stroke" data-item-order="0" transform="translate(38, 418.39990234375)"></g><g id="g-root-tx_salaries_detrjz1feq1vy-stroke" data-item-order="0" transform="translate(230, 418.39990234375)"></g><g id="g-root-tx_developm_4j6rb31feq3gg-stroke" data-item-order="0" transform="translate(398, 418.39990234375)"></g><g id="g-root-tx_expenses_1upaa4f1feq0wa-stroke" data-item-order="0" transform="translate(590, 418.39990234375)"></g><g id="g-root-tx_officeeq_1hdtrr31feq2h8-stroke" data-item-order="0" transform="translate(770, 418.39990234375)"></g></g></g></svg>