<svg xmlns="http://www.w3.org/2000/svg" viewBox="0 0 48 48" fill="none" stroke="currentColor" stroke-width="1.25" stroke-linecap="round" stroke-linejoin="round" role="img" aria-label="A withdrawn story — this content has been taken back by the storyteller">
  <path d="M15 34 C13 32 12 28 13 24 C14 22 15 21 17 21 C17 17 18 14 20 13 C22 12 24 13 24 16 L24 24 C24 22 26 21 28 22 C29 23 29 24 29 26 C30 24 32 24 33 26 C33 28 33 30 32 32 C30 36 27 38 23 38 C20 38 17 36 15 34 Z"/>
  <path d="M22 16 L22 24"/>
  <path d="M24 24 Q24 22 25 22"/>
  <path d="M29 26 Q29 24 30 24"/>
</svg>
